<?xml version="1.0" encoding="UTF-8" standalone="no"?>
<!-- Created with Inkscape (http://www.inkscape.org/) -->

<svg
   xmlns:dc="http://purl.org/dc/elements/1.1/"
   xmlns:cc="http://creativecommons.org/ns#"
   xmlns:rdf="http://www.w3.org/1999/02/22-rdf-syntax-ns#"
   xmlns:svg="http://www.w3.org/2000/svg"
   xmlns="http://www.w3.org/2000/svg"
   xmlns:sodipodi="http://sodipodi.sourceforge.net/DTD/sodipodi-0.dtd"
   xmlns:inkscape="http://www.inkscape.org/namespaces/inkscape"
   width="100"
   height="100"
   viewBox="0 0 100 100"
   version="1.1"
   id="svg562"
   x="0px"
   y="0px"
   inkscape:version="0.92.3 (2405546, 2018-03-11)"
   sodipodi:docname="animations.svg">
  <sodipodi:namedview
     id="base"
     pagecolor="#ffffff"
     bordercolor="#666666"
     borderopacity="1.0"
     inkscape:pageopacity="0.0"
     inkscape:pageshadow="2"
     inkscape:zoom="10.24"
     inkscape:cx="5.6364301"
     inkscape:cy="34.029403"
     inkscape:document-units="mm"
     inkscape:current-layer="svg562"
     showgrid="false"
     showguides="true"
     inkscape:guide-bbox="true"
     inkscape:window-width="2736"
     inkscape:window-height="1719"
     inkscape:window-x="-13"
     inkscape:window-y="47"
     inkscape:window-maximized="1">
    <sodipodi:guide
       position="50,61.328125"
       orientation="1,0"
       id="guide609"
       inkscape:locked="false" />
    <sodipodi:guide
       position="55.078125,50"
       orientation="0,1"
       id="guide611"
       inkscape:locked="false" />
  </sodipodi:namedview>
  <defs
     id="defs556" />
  <metadata
     id="metadata559">
    <rdf:RDF>
      <cc:Work
         rdf:about="">
        <dc:format>image/svg+xml</dc:format>
        <dc:type
           rdf:resource="http://purl.org/dc/dcmitype/StillImage" />
        <dc:title />
      </cc:Work>
    </rdf:RDF>
  </metadata>
  <g
     id="enemy-fast-1">
    <g
       id="g14573">
      <g
         id="use14571">
        <path
           inkscape:connector-curvature="0"
           id="path3352"
           d="m 56.47553,60.289648 c -0.166667,-0.766667 -0.616667,-1.35 -1.35,-1.75 -0.666667,-0.4 -1.4,-0.516667 -2.2,-0.35 -0.766667,0.3 -1.3,0.75 -1.6,1.35 0,0 -7.15,12.35 -7.15,12.35 -0.4,0.7 -0.533333,1.416667 -0.4,2.15 0.266667,0.766667 0.75,1.35 1.45,1.75 0.733333,0.433333 1.483333,0.55 2.25,0.35 0.733333,-0.166667 1.316667,-0.6 1.75,-1.3 0,0 7.05,-12.35 7.05,-12.35 0.366667,-0.7 0.433333,-1.433333 0.2,-2.2"
           style="fill:#2185d5;stroke:none" />
        <path
           inkscape:connector-curvature="0"
           id="path594"
           d="m 52.02553,57.339648 c 0.2,-0.733333 0.08333,-1.466667 -0.35,-2.2 -0.4,-0.7 -0.983333,-1.133333 -1.75,-1.3 -0.766667,-0.166667 -1.483333,-0.08333 -2.15,0.25 0,0 -12.35,7.1 -12.35,7.1 -0.733333,0.4 -1.183333,0.95 -1.35,1.65 -0.166667,0.833333 -0.05,1.583333 0.35,2.25 0.366667,0.666667 0.95,1.116667 1.75,1.35 0.766667,0.233333 1.5,0.133333 2.2,-0.3 0,0 12.35,-7 12.35,-7 0.666667,-0.4 1.1,-1 1.3,-1.8 0,0 0,0 0,0"
           style="fill:#2185d5;stroke:none" />
      </g>
    </g>
    <g
       id="g14577">
      <g
         id="use14575">
        <path
           inkscape:connector-curvature="0"
           d="m 55.52553,23.889648 c -1.866667,0.2 -3.516667,0.966667 -4.95,2.3 0,0 -19.65,19.25 -19.65,19.25 0,0 0,0.05 0,0.05 -1.4,1.433333 -2.216667,3.066667 -2.45,4.9 -0.2,1.966667 0.25,3.783333 1.35,5.45 0,0 0.05,0.05 0.05,0.05 1.1,1.633333 2.583333,2.716667 4.45,3.25 0,0 27.1,7.25 27.1,7.25 1.866667,0.5 3.7,0.3 5.5,-0.6 1.831133,-0.850133 3.131133,-2.150133 3.9,-3.9 0.01867,-0.03227 0.03533,-0.0656 0.05,-0.1 0.756667,-1.770573 0.873333,-3.620573 0.35,-5.55 0,0 -7.4,-26.55 -7.4,-26.55 -0.533333,-1.833333 -1.583333,-3.3 -3.15,-4.4 0,0 0.05,0 0.05,0 -1.520467,-1.05768 -3.2538,-1.524347 -5.2,-1.4 0,0 0,0 0,0"
           id="path586"
           style="fill:#2185d5;stroke:none" />
      </g>
    </g>
    <g
       id="g14581">
      <g
         id="use14579">
        <path
           inkscape:connector-curvature="0"
           d="m 48.97553,43.389648 c -0.8,0 -1.5,0.25 -2.1,0.75 -0.6,0.666667 -0.9,1.416667 -0.9,2.25 0,0.8 0.3,1.483333 0.9,2.05 0.6,0.633333 1.3,0.95 2.1,0.95 0.8,0 1.5,-0.316667 2.1,-0.95 0.6,-0.566667 0.9,-1.25 0.9,-2.05 0,-0.833333 -0.3,-1.583333 -0.9,-2.25 -0.6,-0.5 -1.3,-0.75 -2.1,-0.75 m 14,6 c 0.8,0 1.5,-0.316667 2.1,-0.95 0.6,-0.566667 0.9,-1.25 0.9,-2.05 0,-0.833333 -0.3,-1.583333 -0.9,-2.25 -0.6,-0.5 -1.3,-0.75 -2.1,-0.75 -0.8,0 -1.5,0.25 -2.1,0.75 -0.6,0.666667 -0.9,1.416667 -0.9,2.25 0,0.8 0.3,1.483333 0.9,2.05 0.6,0.633333 1.3,0.95 2.1,0.95 0,0 0,0 0,0"
           id="path590"
           style="fill:#10446d;stroke:none" />
      </g>
    </g>
  </g>
  <g
     id="enemy-fast-2">
    <g
       id="g14585">
      <g
         id="use14583">
        <path
           inkscape:connector-curvature="0"
           id="path635"
           d="m 53.72553,57.539648 c -0.3,-0.1 -0.6,-0.133333 -0.9,-0.1 0,-0.333333 -0.03333,-0.65 -0.1,-0.95 -0.233333,-0.766667 -0.7,-1.333333 -1.4,-1.7 -0.666667,-0.366667 -1.383333,-0.466667 -2.15,-0.3 0,0 -13.75,3.65 -13.75,3.65 -0.833333,0.2 -1.4,0.616667 -1.7,1.25 -0.4,0.766667 -0.5,1.516667 -0.3,2.25 0.2,0.766667 0.65,1.366667 1.35,1.8 0.666667,0.4 1.416667,0.483333 2.25,0.25 0,0 13.1,-3.4 13.1,-3.4 0,0 -3.5,13 -3.5,13 -0.233333,0.766667 -0.183333,1.483333 0.15,2.15 0.466667,0.7 1.083333,1.133333 1.85,1.3 0.833333,0.266667 1.583333,0.2 2.25,-0.2 0.7,-0.366667 1.15,-0.933333 1.35,-1.7 0,0 3.6,-13.8 3.6,-13.8 0.2,-0.766667 0.08333,-1.483333 -0.35,-2.15 -0.366667,-0.7 -0.95,-1.15 -1.75,-1.35 0,0 0,0 0,0"
           style="fill:#2185d5;stroke:none" />
      </g>
    </g>
    <g
       id="g14589">
      <g
         id="use14587">
        <path
           inkscape:connector-curvature="0"
           d="m 55.52553,23.889648 c -1.866667,0.2 -3.516667,0.966667 -4.95,2.3 0,0 -19.65,19.25 -19.65,19.25 0,0 0,0.05 0,0.05 -1.4,1.433333 -2.216667,3.066667 -2.45,4.9 -0.2,1.966667 0.25,3.783333 1.35,5.45 0,0 0.05,0.05 0.05,0.05 1.1,1.633333 2.583333,2.716667 4.45,3.25 0,0 27.1,7.25 27.1,7.25 1.866667,0.5 3.7,0.3 5.5,-0.6 1.833333,-0.866667 3.133333,-2.166667 3.9,-3.9 0.03333,-0.03333 0.05,-0.06667 0.05,-0.1 0.766667,-1.766667 0.883333,-3.616667 0.35,-5.55 0,0 -7.4,-26.55 -7.4,-26.55 -0.533333,-1.833333 -1.583333,-3.3 -3.15,-4.4 0,0 0.05,0 0.05,0 -1.533333,-1.066667 -3.266667,-1.533333 -5.2,-1.4 0,0 0,0 0,0"
           id="path639"
           style="fill:#2185d5;stroke:none" />
      </g>
    </g>
    <g
       id="g14593">
      <g
         id="use14591">
        <path
           inkscape:connector-curvature="0"
           d="m 51.07553,44.139648 c -0.6,-0.5 -1.3,-0.75 -2.1,-0.75 -0.8,0 -1.5,0.25 -2.1,0.75 -0.6,0.666667 -0.9,1.416667 -0.9,2.25 0,0.8 0.3,1.483333 0.9,2.05 0.6,0.633333 1.3,0.95 2.1,0.95 0.8,0 1.5,-0.316667 2.1,-0.95 0.6,-0.566667 0.9,-1.25 0.9,-2.05 0,-0.833333 -0.3,-1.583333 -0.9,-2.25 m 11.9,-0.75 c -0.8,0 -1.5,0.25 -2.1,0.75 -0.6,0.666667 -0.9,1.416667 -0.9,2.25 0,0.8 0.3,1.483333 0.9,2.05 0.6,0.633333 1.3,0.95 2.1,0.95 0.8,0 1.5,-0.316667 2.1,-0.95 0.6,-0.566667 0.9,-1.25 0.9,-2.05 0,-0.833333 -0.3,-1.583333 -0.9,-2.25 -0.6,-0.5 -1.3,-0.75 -2.1,-0.75 0,0 0,0 0,0"
           id="path643"
           style="fill:#10446d;stroke:none" />
      </g>
    </g>
  </g>
  <g
     id="enemy-normal-1">
    <g
       style="display:inline"
       id="g14249">
      <g
         id="use14247">
        <path
           id="path3346"
           d="M52.889264 52.525884C53.089264 53.292551 53.522597 53.892551 54.189264 54.325884C54.922597 54.659217 55.639264 54.725884 56.339264 54.525884C56.339264 54.525884 70.089264 50.825884 70.089264 50.825884C70.855931 50.625884 71.439264 50.209217 71.839264 49.575884C72.239264 48.842551 72.322597 48.092551 72.089264 47.325884C71.889264 46.492551 71.439264 45.875884 70.739264 45.475884C70.105931 45.075884 69.389264 44.975884 68.589264 45.175884C68.589264 45.175884 54.889264 48.925884 54.889264 48.925884C54.155931 49.159217 53.589264 49.625884 53.189264 50.325884C52.789264 50.992551 52.689264 51.725884 52.889264 52.525884"
           style="fill:#dd4e54;stroke:none" />
        <path
           id="path694"
           d="M54.239264 55.575884C53.605931 55.942551 53.172597 56.542551 52.939264 57.375884C52.739264 58.142551 52.855934 58.859217 53.289264 59.525884C53.689264 60.192551 54.255931 60.642551 54.989264 60.875884C54.989264 60.875884 68.689264 64.575884 68.689264 64.575884C69.489264 64.809217 70.189264 64.742551 70.789264 64.375884C71.489264 63.909217 71.939264 63.292551 72.139264 62.525884C72.372597 61.792551 72.289264 61.059217 71.889264 60.325884C71.522597 59.625884 70.939264 59.192551 70.139264 59.025884C70.139264 59.025884 56.439264 55.225884 56.439264 55.225884C55.672597 55.025884 54.939264 55.142554 54.239264 55.575884C54.239264 55.575884 54.239264 55.575884 54.239264 55.575884"
           style="fill:#dd4e54;stroke:none" />
      </g>
    </g>
    <g
       id="g14253">
      <g
         id="use14251">
        <path
           d="M27.539264 41.475884C27.539264 41.475884 27.539264 67.525884 27.539264 67.525884C27.539264 71.525884 29.539264 73.525884 33.539264 73.525884C33.539264 73.525884 59.589264 73.525884 59.589264 73.525884C63.589264 73.525884 65.589264 71.525884 65.589264 67.525884C65.589264 67.525884 65.589264 41.475884 65.589264 41.475884C65.589264 37.475884 63.589264 35.475884 59.589264 35.475884C59.589264 35.475884 33.539264 35.475884 33.539264 35.475884C29.539264 35.475884 27.539264 37.475884 27.539264 41.475884C27.539264 41.475884 27.539264 41.475884 27.539264 41.475884"
           id="path686"
           style="fill:#dd4e54;stroke:none" />
      </g>
    </g>
    <g
       id="g14257">
      <g
         id="use14255">
        <path
           d="M43.489264 61.825884C45.455931 63.759217 47.822597 64.725884 50.589264 64.725884C53.355931 64.725884 55.722597 63.759217 57.689264 61.825884C59.622597 59.859217 60.589264 57.492551 60.589264 54.725884C60.589264 51.992551 59.622597 49.625884 57.689264 47.625884C55.722597 45.692551 53.355931 44.725884 50.589264 44.725884C47.822597 44.725884 45.455931 45.692551 43.489264 47.625884C41.555931 49.625884 40.589264 51.992551 40.589264 54.725884C40.589264 57.492551 41.555931 59.859217 43.489264 61.825884C43.489264 61.825884 43.489264 61.825884 43.489264 61.825884"
           id="path698"
           style="fill:#ffffff;stroke:none" />
      </g>
    </g>
    <g
       id="g14261">
      <g
         id="use14259">
        <path
           d="M52.539264 50.425884C52.539264 49.892551 52.322597 49.425884 51.889264 49.025884C51.522597 48.625884 51.072597 48.425884 50.539264 48.425884C49.972597 48.425884 49.472597 48.625884 49.039264 49.025884C48.705931 49.425884 48.539264 49.892551 48.539264 50.425884C48.539264 50.959217 48.705931 51.425884 49.039264 51.825884C49.472597 52.225884 49.972597 52.425884 50.539264 52.425884C51.072597 52.425884 51.522597 52.225884 51.889264 51.825884C52.322597 51.425884 52.539264 50.959217 52.539264 50.425884C52.539264 50.425884 52.539264 50.425884 52.539264 50.425884"
           id="path690"
           style="fill:#4b3733;stroke:none" />
      </g>
    </g>
  </g>
  <g
     id="enemy-normal-2">
    <g
       id="g14265"
       style="display:inline">
      <g
         id="use14263">
        <path
           id="path3342"
           d="M54.689266 59.125914C54.922599 59.892581 55.355933 60.475914 55.989266 60.875914C55.989266 60.875914 68.289266 68.025914 68.289266 68.025914C68.989266 68.425914 69.689266 68.525914 70.389266 68.325914C71.189266 68.092581 71.772599 67.625914 72.139266 66.925914C72.572599 66.259247 72.672599 65.525914 72.439266 64.725914C72.272599 63.959247 71.839266 63.375914 71.139266 62.975914C71.139266 62.975914 58.839266 55.825914 58.839266 55.825914C58.205933 55.425914 57.489266 55.342581 56.689266 55.575914C55.955933 55.775914 55.372599 56.225914 54.939266 56.925914C54.539266 57.625914 54.455933 58.359247 54.689266 59.125914"
           style="fill:#dd4e54;stroke:none" />
        <path
           id="path756"
           d="M55.939266 48.925914C55.305933 49.325914 54.872599 49.925914 54.639266 50.725914C54.439266 51.492581 54.555936 52.225914 54.989266 52.925914C55.355933 53.592581 55.922599 54.059247 56.689266 54.325914C57.455933 54.492581 58.155933 54.375914 58.789266 53.975914C58.789266 53.975914 71.089266 46.825914 71.089266 46.825914C71.789266 46.425914 72.239266 45.875914 72.439266 45.175914C72.672599 44.342581 72.572599 43.592581 72.139266 42.925914C71.739266 42.192581 71.155933 41.725914 70.389266 41.525914C69.655933 41.292581 68.939266 41.375914 68.239266 41.775914C68.239266 41.775914 55.939266 48.925914 55.939266 48.925914"
           style="fill:#dd4e54;stroke:none" />
      </g>
    </g>
    <g
       id="g14269">
      <g
         id="use14267">
        <path
           d="M27.539266 41.475914C27.539266 41.475914 27.539266 67.525914 27.539266 67.525914C27.539266 71.525914 29.539266 73.525914 33.539266 73.525914C33.539266 73.525914 59.589266 73.525914 59.589266 73.525914C63.589266 73.525914 65.589266 71.525914 65.589266 67.525914C65.589266 67.525914 65.589266 41.475914 65.589266 41.475914C65.589266 37.475914 63.589266 35.475914 59.589266 35.475914C59.589266 35.475914 33.539266 35.475914 33.539266 35.475914C29.539266 35.475914 27.539266 37.475914 27.539266 41.475914C27.539266 41.475914 27.539266 41.475914 27.539266 41.475914"
           id="path752"
           style="fill:#dd4e54;stroke:none" />
      </g>
    </g>
    <g
       id="g14273">
      <g
         id="use14271">
        <path
           d="M43.489266 61.825914C45.455933 63.759247 47.822599 64.725914 50.589266 64.725914C53.355933 64.725914 55.722599 63.759247 57.689266 61.825914C59.622599 59.859247 60.589266 57.492581 60.589266 54.725914C60.589266 51.992581 59.622599 49.625914 57.689266 47.625914C55.722599 45.692581 53.355933 44.725914 50.589266 44.725914C47.822599 44.725914 45.455933 45.692581 43.489266 47.625914C41.555933 49.625914 40.589266 51.992581 40.589266 54.725914C40.589266 57.492581 41.555933 59.859247 43.489266 61.825914C43.489266 61.825914 43.489266 61.825914 43.489266 61.825914"
           id="path744"
           style="fill:#ffffff;stroke:none" />
      </g>
    </g>
    <g
       id="g14277">
      <g
         id="use14275">
        <path
           d="M52.539266 50.425914C52.539266 49.892581 52.322599 49.425914 51.889266 49.025914C51.522599 48.625914 51.072599 48.425914 50.539266 48.425914C49.972599 48.425914 49.472599 48.625914 49.039266 49.025914C48.705933 49.425914 48.539266 49.892581 48.539266 50.425914C48.539266 50.959247 48.705933 51.425914 49.039266 51.825914C49.472599 52.225914 49.972599 52.425914 50.539266 52.425914C51.072599 52.425914 51.522599 52.225914 51.889266 51.825914C52.322599 51.425914 52.539266 50.959247 52.539266 50.425914C52.539266 50.425914 52.539266 50.425914 52.539266 50.425914"
           id="path748"
           style="fill:#4b3733;stroke:none" />
      </g>
    </g>
  </g>
</svg>
