<?xml version="1.0" encoding="UTF-8" standalone="no"?>
<!-- Created with Inkscape (http://www.inkscape.org/) -->

<!-- Based on assets from kenney.nl -->

<svg
   xmlns:dc="http://purl.org/dc/elements/1.1/"
   xmlns:cc="http://creativecommons.org/ns#"
   xmlns:rdf="http://www.w3.org/1999/02/22-rdf-syntax-ns#"
   xmlns:svg="http://www.w3.org/2000/svg"
   xmlns="http://www.w3.org/2000/svg"
   xmlns:sodipodi="http://sodipodi.sourceforge.net/DTD/sodipodi-0.dtd"
   xmlns:inkscape="http://www.inkscape.org/namespaces/inkscape"
   x="0px"
   y="0px"
   width="100"
   height="100"
   viewBox="0 0 100 100"
   version="1.1"
   id="svg19143"
   inkscape:version="0.92.3 (2405546, 2018-03-11)"
   sodipodi:docname="drawing.svg">
  <sodipodi:namedview
     id="base"
     pagecolor="#ffffff"
     bordercolor="#666666"
     borderopacity="1.0"
     inkscape:pageopacity="0.0"
     inkscape:pageshadow="2"
     inkscape:zoom="7.9195959"
     inkscape:cx="43.56004"
     inkscape:cy="63.562311"
     inkscape:document-units="mm"
     inkscape:current-layer="svg19143"
     showgrid="false"
     inkscape:window-width="2736"
     inkscape:window-height="1719"
     inkscape:window-x="-13"
     inkscape:window-y="47"
     inkscape:window-maximized="1"
     units="px" />
  <defs
     id="defs26" />
  <metadata
     id="metadata19140">
    <rdf:RDF>
      <cc:Work
         rdf:about="">
        <dc:format>image/svg+xml</dc:format>
        <dc:type
           rdf:resource="http://purl.org/dc/dcmitype/StillImage" />
        <dc:title />
      </cc:Work>
    </rdf:RDF>
  </metadata>
  <g
     style="display:inline"
     id="flag">
    <g
       id="use3910">
      <path
         inkscape:connector-curvature="0"
         id="path490"
         d="m 11.307465,50.98879 c 0,0 -8.1762562,0 -8.1762562,0 0,0 0,49.05754 0,49.05754 0,0 8.1762562,0 8.1762562,0 0,0 0,-49.05754 0,-49.05754"
         style="fill:#dd4e54;stroke:none" />
      <path
         inkscape:connector-curvature="0"
         id="path488"
         d="m 11.307465,19.919017 c 0,0 -8.1762562,0 -8.1762562,0 0,0 0,19.623014 0,19.623014 0,0 8.1762562,0 8.1762562,0 0,0 0,-19.623014 0,-19.623014"
         style="fill:#dd4e54;stroke:none" />
      <path
         inkscape:connector-curvature="0"
         id="path38"
         d="M 4.3576472,1.5224408 C 3.5400216,2.3400664 3.1312088,3.3212171 3.1312088,4.465893 c 0,0 0,4.0063654 0,4.0063654 0,0 8.1762562,0 8.1762562,0 0,0 0,-4.0063654 0,-4.0063654 0,-0.872134 -0.245288,-1.6625054 -0.735863,-2.3711143 C 10.462585,1.8767452 10.29906,1.6859659 10.081026,1.5224408 9.8629929,1.3044073 9.6449594,1.113628 9.4269259,0.95010288 8.7728254,0.51403589 8.0369624,0.2960024 7.2193368,0.2960024 c -1.1446758,0 -2.0985724,0.4088128 -2.8616896,1.2264384 0,0 0,0 0,0"
         style="fill:#dd4e54;stroke:none" />
      <path
         inkscape:connector-curvature="0"
         style="fill:#49b47e;stroke:none"
         id="path40"
         d="M 55.050434,19.837254 C 42.731542,11.988048 30.385395,8.1997165 18.011995,8.4722584 c 0,0 -6.70453,0 -6.70453,0 0,0 -8.1762562,0 -8.1762562,0 0,0 -1.6352512,0 -1.6352512,0 0,0 0,11.4467586 0,11.4467586 0,0 1.6352512,0 1.6352512,0 0,0 8.1762562,0 8.1762562,0 0,0 0,19.623014 0,19.623014 0,0 -8.1762562,0 -8.1762562,0 0,0 -1.6352512,0 -1.6352512,0 0,0 0,11.446759 0,11.446759 0,0 1.6352512,0 1.6352512,0 0,0 8.1762562,0 8.1762562,0 0,0 2.044064,0 2.044064,0 13.73611,-7.740189 27.47222,-10.329337 41.20833,-7.767444 3.979111,0.763118 7.930968,1.090168 11.855571,0.981151 0.926643,0 1.853285,-0.05451 2.779927,-0.163525 7.631173,-0.599592 15.235091,-2.698164 22.811755,-6.295717 1.744267,-0.817626 3.488535,-1.744268 5.232803,-2.779927 0.272542,-0.163525 0.490576,-0.436067 0.654101,-0.817626 0.163525,-0.436067 0.218033,-0.926642 0.163525,-1.471726 -0.05451,-0.490575 -0.190779,-0.926642 -0.408813,-1.308201 -0.218033,-0.32705 -0.463321,-0.490575 -0.735863,-0.490575 -1.744268,-0.05451 -3.488536,-0.05451 -5.232804,0 -7.413138,0.218033 -14.826277,-1.062913 -22.239416,-3.84284 -0.926642,-0.327051 -1.826031,-0.681355 -2.698165,-1.062914 -3.870094,-1.635251 -7.767443,-3.679315 -11.692046,-6.132192 0,0 0,0 0,0" />
    </g>
  </g>
  <g
     style="display:inline"
     id="discRed">
    <g
       id="use13411">
      <path
         inkscape:connector-curvature="0"
         d="m 14.396854,14.799991 c -9.7180168,9.718017 -14.57702551,21.546513 -14.57702551,35.485488 0,13.840812 4.85900871,25.620227 14.57702551,35.338244 9.81618,9.81618 21.644675,14.724267 35.485488,14.724267 13.840813,0 25.620228,-4.908087 35.338245,-14.724267 9.816179,-9.718017 14.724269,-21.497432 14.724269,-35.338244 0,-13.938975 -4.90809,-25.767471 -14.724269,-35.485488 C 75.50257,5.0819737 63.723155,0.22296505 49.882342,0.22296505 c -13.840813,0 -25.669308,4.85900865 -35.485488,14.57702595 m 15.165997,35.485488 c 0,-5.693384 2.012317,-10.503312 6.03695,-14.429784 3.926472,-3.926471 8.687319,-5.889707 14.282541,-5.889707 5.693384,0 10.503312,1.963236 14.429783,5.889707 3.926472,3.926472 5.889708,8.7364 5.889708,14.429784 0,5.595222 -1.963236,10.356069 -5.889708,14.28254 -3.926471,4.024634 -8.736399,6.03695 -14.429783,6.03695 -5.595222,0 -10.356069,-2.012316 -14.282541,-6.03695 -4.024633,-3.926471 -6.03695,-8.687318 -6.03695,-14.28254"
         style="fill:#5d433e;stroke:none"
         id="path19180" />
      <path
         inkscape:connector-curvature="0"
         d="m 35.599801,35.855695 c -4.024633,3.926472 -6.03695,8.7364 -6.03695,14.429784 0,5.595222 2.012317,10.356069 6.03695,14.28254 3.926472,4.024634 8.687319,6.03695 14.282541,6.03695 5.693384,0 10.503312,-2.012316 14.429783,-6.03695 3.926472,-3.926471 5.889708,-8.687318 5.889708,-14.28254 0,-5.693384 -1.963236,-10.503312 -5.889708,-14.429784 -3.926471,-3.926471 -8.736399,-5.889707 -14.429783,-5.889707 -5.595222,0 -10.356069,1.963236 -14.282541,5.889707 m 11.337687,14.429784 c 0,-0.785295 0.294486,-1.472427 0.883456,-2.061398 0.588971,-0.588971 1.276104,-0.883456 2.061398,-0.883456 0.883456,0 1.570589,0.294485 2.061398,0.883456 0.58897,0.588971 0.883456,1.276103 0.883456,2.061398 0,0.883456 -0.294486,1.570588 -0.883456,2.061397 -0.490809,0.588971 -1.177942,0.883456 -2.061398,0.883456 -0.785294,0 -1.472427,-0.294485 -2.061398,-0.883456 -0.58897,-0.490809 -0.883456,-1.177941 -0.883456,-2.061397 0,0 0,0 0,0"
         id="path19182"
         style="fill:#dd4e54;stroke:none" />
      <path
         inkscape:connector-curvature="0"
         id="path343"
         d="m 47.820944,48.224081 c -0.58897,0.588971 -0.883456,1.276103 -0.883456,2.061398 0,0.883456 0.294486,1.570588 0.883456,2.061397 0.588971,0.588971 1.276104,0.883456 2.061398,0.883456 0.883456,0 1.570589,-0.294485 2.061398,-0.883456 0.58897,-0.490809 0.883456,-1.177941 0.883456,-2.061397 0,-0.785295 -0.294486,-1.472427 -0.883456,-2.061398 -0.490809,-0.588971 -1.177942,-0.883456 -2.061398,-0.883456 -0.785294,0 -1.472427,0.294485 -2.061398,0.883456 0,0 0,0 0,0"
         style="fill:#5d433e;stroke:none" />
    </g>
  </g>
  <g
     style="display:inline"
     id="rock-3">
    <g
       id="use3735">
      <path
         inkscape:connector-curvature="0"
         style="fill:#6c8587;stroke:none"
         id="path4235"
         d="m 7.1098166,31.484638 c -0.7458451,0.372922 -1.3425211,0.969598 -1.7900281,1.790028 -0.447507,0.745845 -0.6339683,1.566274 -0.5593838,2.461288 0,0 2.5731654,41.953783 2.5731654,41.953783 0.074584,0.895014 0.4102147,1.752736 1.0068908,2.573166 0.596676,0.67126 1.3798133,1.15606 2.3494121,1.454398 0,0 51.239554,13.760841 51.239554,13.760841 0.895014,0.223753 1.82732,0.186461 2.796918,-0.111877 0.895014,-0.372923 1.603567,-0.969599 2.125659,-1.790028 0,0 28.416696,-44.638826 28.416696,-44.638826 0.522091,-0.820429 0.745845,-1.715443 0.67126,-2.685042 -0.07458,-0.969598 -0.410215,-1.82732 -1.006891,-2.573165 0,0 -30.877984,-38.4856038 -30.877984,-38.4856038 -0.671261,-0.8204295 -1.528982,-1.342521 -2.573166,-1.5662745 -1.044183,-0.2237536 -2.051073,-0.074585 -3.020672,0.447507 0,0 -51.3514304,27.4098053 -51.3514304,27.4098053 m 2.1256583,3.915686 c 0,0 51.3514301,-27.4098049 51.3514301,-27.4098049 0,0 30.877985,38.4856039 30.877985,38.4856039 0,0 -28.416696,44.638825 -28.416696,44.638825 0,0 -51.239554,-13.760841 -51.239554,-13.760841 0,0 -2.5731651,-41.953783 -2.5731651,-41.953783" />
      <path
         inkscape:connector-curvature="0"
         id="path272"
         d="m 11.80864,77.354107 c 0,0 20.809077,-16.334006 20.809077,-16.334006 0,0 0.783137,-13.537087 0.783137,-13.537087 0,0 -24.1653791,-12.08269 -24.1653791,-12.08269 0,0 2.5731651,41.953783 2.5731651,41.953783"
         style="display:inline;fill:#90adaf;stroke:none" />
      <path
         inkscape:connector-curvature="0"
         id="path4237"
         d="m 60.586905,7.9905191 c 0,0 -7.607619,28.1929419 -7.607619,28.1929419 0,0 10.740169,11.075799 10.740169,11.075799 0,0 -10.516415,19.242802 -10.516415,19.242802 0,0 9.845154,24.612886 9.845154,24.612886 0,0 28.416696,-44.638825 28.416696,-44.638825 0,0 -30.877985,-38.4856039 -30.877985,-38.4856039"
         style="display:inline;fill:#90adaf;stroke:none" />
      <path
         inkscape:connector-curvature="0"
         style="fill:#89a4a6;stroke:none"
         id="path4239"
         d="m 63.048194,91.114948 c 0,0 -9.845154,-24.612886 -9.845154,-24.612886 0,0 -20.585323,-5.481961 -20.585323,-5.481961 0,0 -20.809077,16.334006 -20.809077,16.334006 0,0 51.239554,13.760841 51.239554,13.760841" />
      <path
         inkscape:connector-curvature="0"
         style="fill:#a7c9cb;stroke:none"
         id="path4241"
         d="m 53.20304,66.502062 c 0,0 10.516415,-19.242802 10.516415,-19.242802 0,0 -10.740169,-11.075799 -10.740169,-11.075799 0,0 -19.578432,11.299553 -19.578432,11.299553 0,0 -0.783137,13.537087 -0.783137,13.537087 0,0 20.585323,5.481961 20.585323,5.481961" />
      <path
         inkscape:connector-curvature="0"
         style="fill:#9bbbbd;stroke:none"
         id="path4243"
         d="m 52.979286,36.183461 c 0,0 7.607619,-28.1929419 7.607619,-28.1929419 0,0 -51.3514301,27.4098049 -51.3514301,27.4098049 0,0 24.1653791,12.08269 24.1653791,12.08269 0,0 19.578432,-11.299553 19.578432,-11.299553" />
    </g>
  </g>
  <g
     style="display:inline"
     id="rock-2">
    <g
       id="use3739">
      <path
         inkscape:connector-curvature="0"
         d="m -7.5969027,22.23676 c 0.070014,0.840164 0.3150614,1.575307 0.7351434,2.20543 0,0 15.227971,21.109119 15.227971,21.109119 0,0 -6.6162908,24.679815 -6.6162908,24.679815 -0.210041,0.910177 -0.1050205,1.855362 0.3150614,2.835553 0.3500683,0.840164 0.9801913,1.505294 1.8903689,1.995389 0,0 27.6203888,14.492828 27.6203888,14.492828 0.280055,0.140027 0.560109,0.245048 0.840164,0.315061 0,0 37.492315,9.976947 37.492315,9.976947 0.630123,0.210038 1.260246,0.245048 1.890369,0.10502 0.630123,-0.140027 1.225239,-0.350068 1.785348,-0.630123 0,0 28.460554,-21.949282 28.460554,-21.949282 0.49009,-0.420082 0.87517,-0.910178 1.15522,-1.470287 0.28006,-0.420082 0.45509,-0.910177 0.52511,-1.470287 0,0 3.36065,-30.981044 3.36065,-30.981044 0.07,-1.120219 -0.14002,-2.10041 -0.63012,-2.940574 0,0 -15.963115,-22.159323 -15.963115,-22.159323 -0.350068,-0.56011 -0.840164,-0.980192 -1.470287,-1.260246 -0.700137,-0.350069 -1.365266,-0.490096 -1.995389,-0.420082 0,0 -22.999488,0.315061 -22.999488,0.315061 0,0 -32.871413,-16.48821668 -32.871413,-16.48821668 C 30.525535,0.14745002 29.860405,0.0074227 29.160269,0.07743636 28.460132,0.0074227 27.865016,0.18245685 27.37492,0.60253881 c 0,0 -32.8714129,17.64344219 -32.8714129,17.64344219 -0.7001366,0.420082 -1.2602459,0.980191 -1.6803279,1.680328 -0.3500683,0.630123 -0.4900956,1.400273 -0.4200819,2.310451 m 4.2008196,-0.315062 c 0,0 32.6613721,-17.643442 32.6613721,-17.643442 0,0 33.816598,16.908299 33.816598,16.908299 0,0 23.944672,-0.420082 23.944672,-0.420082 0,0 15.858091,22.264344 15.858091,22.264344 0,0 -3.360653,30.876024 -3.360653,30.876024 0,0 -28.460553,21.844262 -28.460553,21.844262 0,0 -37.492315,-9.976947 -37.492315,-9.976947 0,0 -27.8304295,-14.387807 -27.8304295,-14.387807 0,0 7.1413935,-26.570184 7.1413935,-26.570184 0,0 -16.2781761,-22.894467 -16.2781761,-22.894467"
         id="path4139"
         style="fill:#6c8587;stroke:none" />
      <path
         inkscape:connector-curvature="0"
         id="path276"
         d="m 87.026559,20.766473 c 0,0 -12.917521,15.438012 -12.917521,15.438012 0,0 7.141394,10.081967 7.141394,10.081967 0,0 -1.470287,13.967725 -1.470287,13.967725 0,0 19.743852,13.652664 19.743852,13.652664 0,0 3.360653,-30.876024 3.360653,-30.876024 0,0 -15.858091,-22.264344 -15.858091,-22.264344"
         style="display:inline;fill:#90adaf;stroke:none" />
      <path
         inkscape:connector-curvature="0"
         id="path4141"
         d="m 49.954326,65.610222 c 0,0 -12.392418,-6.616291 -12.392418,-6.616291 0,0 3.150615,-11.972336 3.150615,-11.972336 0,0 -27.83043,-2.20543 -27.83043,-2.20543 0,0 -7.1413935,26.570184 -7.1413935,26.570184 0,0 27.8304295,14.387807 27.8304295,14.387807 0,0 16.383197,-20.163934 16.383197,-20.163934"
         style="display:inline;fill:#90adaf;stroke:none" />
      <path
         inkscape:connector-curvature="0"
         d="m 49.954326,65.610222 c 0,0 -16.383197,20.163934 -16.383197,20.163934 0,0 37.492315,9.976947 37.492315,9.976947 0,0 28.460553,-21.844262 28.460553,-21.844262 0,0 -19.743852,-13.652664 -19.743852,-13.652664 0,0 -12.91752,9.871926 -12.91752,9.871926 0,0 -16.908299,-4.515881 -16.908299,-4.515881"
         id="path4143"
         style="fill:#87a6a8;stroke:none" />
      <path
         inkscape:connector-curvature="0"
         d="m 48.063957,28.853051 c 0,0 -14.702869,7.981557 -14.702869,7.981557 0,0 7.351435,10.186987 7.351435,10.186987 0,0 -3.150615,11.972336 -3.150615,11.972336 0,0 12.392418,6.616291 12.392418,6.616291 0,0 16.908299,4.515881 16.908299,4.515881 0,0 12.91752,-9.871926 12.91752,-9.871926 0,0 1.470287,-13.967725 1.470287,-13.967725 0,0 -7.141394,-10.081967 -7.141394,-10.081967 0,0 -10.81711,0.210041 -10.81711,0.210041 0,0 -15.227971,-7.561475 -15.227971,-7.561475"
         id="path4145"
         style="fill:#a7c9cb;stroke:none" />
      <path
         inkscape:connector-curvature="0"
         d="m 33.361088,36.834608 c 0,0 14.702869,-7.981557 14.702869,-7.981557 0,0 15.227971,7.561475 15.227971,7.561475 0,0 10.81711,-0.210041 10.81711,-0.210041 0,0 12.917521,-15.438012 12.917521,-15.438012 0,0 -23.944672,0.420082 -23.944672,0.420082 0,0 -33.816598,-16.908299 -33.816598,-16.908299 0,0 -32.6613721,17.643442 -32.6613721,17.643442 0,0 16.2781761,22.894467 16.2781761,22.894467 0,0 27.83043,2.20543 27.83043,2.20543 0,0 -7.351435,-10.186987 -7.351435,-10.186987"
         id="path4147"
         style="fill:#9ab9bb;stroke:none" />
    </g>
  </g>
  <g
     style="display:inline"
     id="rock-1">
    <g
       id="use3731">
      <path
         inkscape:connector-curvature="0"
         d="M 60.958919,10.78189 C 60.561898,10.226062 60.045772,9.7893403 59.41054,9.4717243 c -0.714636,-0.317616 -1.429272,-0.476424 -2.143908,-0.476424 0,0 -26.203319,0 -26.203319,0 -0.873443,0 -1.667484,0.238212 -2.382119,0.714636 -0.79404,0.3970197 -1.389571,0.9925497 -1.78659,1.7865897 0,0 -19.0569597,35.731799 -19.0569597,35.731799 -0.39702,0.714636 -0.59553,1.468974 -0.59553,2.263014 0,0 0,23.821199 0,23.821199 0,1.111656 0.357318,2.104206 1.071954,2.97765 0.6352319,0.79404 1.4689739,1.349868 2.5012257,1.667484 0,0 45.260279,11.910599 45.260279,11.910599 0.39702,0.0794 0.794039,0.119106 1.191059,0.119106 0,0 26.20332,0 26.20332,0 1.270463,0 2.382119,-0.436721 3.334967,-1.310165 0.873444,-0.873444 1.349868,-1.905696 1.429273,-3.096757 0,0 2.382118,-35.731798 2.382118,-35.731798 0.07943,-1.270464 -0.277913,-2.38212 -1.071952,-3.334968 0,0 -28.585439,-35.731799 -28.585439,-35.731799 m -29.895606,2.97765 c 0,0 26.203319,0 26.203319,0 0,0 28.585439,35.731799 28.585439,35.731799 0,0 -2.382119,35.731798 -2.382119,35.731798 0,0 -26.20332,0 -26.20332,0 0,0 -45.260278,-11.910599 -45.260278,-11.910599 0,0 0,-23.821199 0,-23.821199 0,0 19.056959,-35.731799 19.056959,-35.731799"
         id="path19200"
         style="display:inline;fill:#6c8587;stroke:none" />
      <path
         style="display:inline;fill:#90adaf;stroke:none"
         d="m 31.063313,54.255579 c 0,0 -19.056959,-4.76424 -19.056959,-4.76424 0,0 0,23.821199 0,23.821199 0,0 19.056959,-14.292719 19.056959,-14.292719 0,0 0,-4.76424 0,-4.76424"
         id="path106"
         inkscape:connector-curvature="0" />
      <path
         style="display:inline;fill:#90adaf;stroke:none"
         d="m 57.266632,13.75954 c 0,0 -9.52848,19.05696 -9.52848,19.05696 0,0 19.05696,23.821198 19.05696,23.821198 0,0 0,9.52848 0,9.52848 0,0 16.67484,19.056959 16.67484,19.056959 0,0 2.382119,-35.731798 2.382119,-35.731798 0,0 -28.585439,-35.731799 -28.585439,-35.731799"
         id="path19202"
         inkscape:connector-curvature="0" />
      <path
         inkscape:connector-curvature="0"
         d="m 83.469952,85.223137 c 0,0 -16.67484,-19.056959 -16.67484,-19.056959 0,0 -35.731799,-7.146359 -35.731799,-7.146359 0,0 -19.056959,14.292719 -19.056959,14.292719 0,0 45.260278,11.910599 45.260278,11.910599 0,0 26.20332,0 26.20332,0"
         id="path19204"
         style="fill:#89a4a6;stroke:none" />
      <path
         inkscape:connector-curvature="0"
         d="m 47.738152,32.8165 c 0,0 -4.764239,0 -4.764239,0 0,0 -11.9106,21.439079 -11.9106,21.439079 0,0 0,4.76424 0,4.76424 0,0 35.731799,7.146359 35.731799,7.146359 0,0 0,-9.52848 0,-9.52848 0,0 -19.05696,-23.821198 -19.05696,-23.821198"
         id="path19206"
         style="fill:#a7c9cb;stroke:none" />
      <path
         inkscape:connector-curvature="0"
         d="m 42.973913,32.8165 c 0,0 4.764239,0 4.764239,0 0,0 9.52848,-19.05696 9.52848,-19.05696 0,0 -26.203319,0 -26.203319,0 0,0 -19.056959,35.731799 -19.056959,35.731799 0,0 19.056959,4.76424 19.056959,4.76424 0,0 11.9106,-21.439079 11.9106,-21.439079"
         id="path19208"
         style="fill:#9bbbbd;stroke:none" />
    </g>
  </g>
  <g
     style="display:inline"
     id="bush-5">
    <g
       id="use3727">
      <path
         id="path95"
         d="m 73.508715,37.568317 c 1.923672,-4.007651 3.312991,-8.095454 4.167956,-12.263411 0.106871,-0.694659 0,-1.362601 -0.320612,-2.003825 -0.320612,-0.694659 -0.80153,-1.202295 -1.442754,-1.522907 -0.641224,-0.320612 -1.309166,-0.400765 -2.003825,-0.240459 -4.061086,0.748095 -7.961866,2.05726 -11.70234,3.927497 C 60.336903,16.862123 57.130783,9.1941513 52.588779,2.4612985 52.214732,1.8200744 51.680378,1.3925917 50.985719,1.1788503 c -0.69466,-0.21374134 -1.389319,-0.21374134 -2.083979,0 -0.694659,0.2137414 -1.229012,0.6412241 -1.60306,1.2824482 -4.595439,6.7862882 -7.774842,14.5344125 -9.538208,23.2443725 -3.954215,-1.977107 -8.015301,-3.366426 -12.183257,-4.167956 -0.748095,-0.160306 -1.416037,-0.08015 -2.003826,0.240459 -0.694659,0.320612 -1.202295,0.80153 -1.522907,1.442754 -0.320612,0.641224 -0.400765,1.335884 -0.240459,2.083978 0.80153,4.221392 2.190849,8.335913 4.167957,12.343564 -8.763396,1.763366 -16.5916735,4.969486 -23.4848323,9.618361 -0.6412241,0.374047 -1.0687068,0.908401 -1.2824482,1.60306 -0.21374134,0.69466 -0.21374134,1.389319 0,2.083979 0.2137414,0.694659 0.6412241,1.229012 1.2824482,1.60306 6.7328528,4.595439 14.4275413,7.801559 23.0840673,9.618361 -1.763367,3.687038 -3.019097,7.507665 -3.767192,11.46188 -0.160306,0.69466 -0.08015,1.362602 0.240459,2.003826 0.320612,0.641224 0.828248,1.122142 1.522907,1.442754 0.587789,0.320612 1.255731,0.427483 2.003826,0.320612 4.061085,-0.854966 8.068736,-2.217567 12.022951,-4.087804 1.709931,9.030573 4.942769,17.072591 9.698514,24.126056 0.374048,0.587789 0.908401,0.988554 1.60306,1.202295 0.69466,0.213742 1.389319,0.213742 2.083979,0 0.694659,-0.213741 1.229013,-0.614506 1.60306,-1.202295 4.755745,-7.000029 8.015301,-14.988613 9.778667,-23.96575 3.687039,1.763367 7.507665,3.045815 11.461881,3.847345 0.694659,0.160306 1.389318,0.08015 2.083978,-0.240459 0.641224,-0.320612 1.122142,-0.80153 1.442754,-1.442754 0.320612,-0.641224 0.427483,-1.309166 0.320612,-2.003826 -0.80153,-3.954215 -2.057261,-7.748124 -3.767191,-11.381727 8.816831,-1.816802 16.671826,-5.04964 23.564985,-9.698514 0.587788,-0.374048 0.988553,-0.908401 1.202295,-1.60306 0.213741,-0.69466 0.213741,-1.389319 0,-2.083979 -0.213742,-0.694659 -0.614507,-1.229013 -1.202295,-1.60306 C 90.421,42.564521 82.432416,39.331683 73.508715,37.568317"
         style="fill:#229c56;stroke:none"
         inkscape:connector-curvature="0" />
      <path
         id="path4592"
         d="m 74.470551,24.663682 c -1.015272,5.290099 -2.992379,10.393174 -5.931323,15.309225 10.259585,1.389319 19.290158,4.70231 27.091717,9.938973 -7.641253,5.129793 -16.51152,8.442784 -26.610799,9.938974 2.671767,4.542004 4.488569,9.324466 5.450405,14.347388 -5.076358,-1.015271 -9.938974,-2.885508 -14.587848,-5.61071 -1.389319,10.259585 -4.70231,19.26344 -9.938973,27.011564 C 44.707066,87.797536 41.394075,78.713529 40.004756,68.347073 35.14214,71.232581 30.119218,73.182971 24.93599,74.198242 25.897827,69.17532 27.741346,64.36614 30.466548,59.770701 20.527575,58.274511 11.790897,54.988238 4.2565139,49.91188 11.951203,44.728652 20.848187,41.442379 30.947466,40.05306 27.955087,35.083574 25.951262,29.953781 24.93599,24.663682 c 5.236664,1.015272 10.286303,3.019097 15.148919,6.011476 1.442755,-10.045844 4.729028,-18.862675 9.858821,-26.4504933 5.076357,7.5343833 8.36263,16.2443433 9.85882,26.1298813 4.648874,-2.832073 9.538208,-4.729028 14.668001,-5.690864 0,0 0,0 0,0"
         style="fill:#229c56;stroke:none"
         inkscape:connector-curvature="0" />
      <path
         id="path91"
         d="m 60.363621,64.339422 c -0.106871,1.442754 -0.267177,2.858791 -0.480918,4.24811 4.648874,2.725202 9.51149,4.595439 14.587848,5.61071 -0.961836,-5.022922 -2.778638,-9.805384 -5.450405,-14.347388 -1.49619,0.213741 -3.045814,0.374047 -4.648875,0.480918 -1.70993,0.05344 -3.20612,-0.106871 -4.488568,-0.480918 0.374047,1.282448 0.534353,2.778637 0.480918,4.488568"
         style="fill:#25a65c;stroke:none"
         inkscape:connector-curvature="0" />
      <path
         id="path89"
         d="m 40.004756,59.850854 c -1.282448,0.374047 -2.778637,0.534353 -4.488568,0.480918 -1.709931,-0.160306 -3.393144,-0.34733 -5.04964,-0.561071 -2.725202,4.595439 -4.568721,9.404619 -5.530558,14.427541 5.183228,-1.015271 10.20615,-2.965661 15.068766,-5.851169 -0.213741,-1.335884 -0.374047,-2.671767 -0.480918,-4.007651 -0.05344,-1.709931 0.106871,-3.20612 0.480918,-4.488568"
         style="fill:#25a65c;stroke:none"
         inkscape:connector-curvature="0" />
      <path
         id="path87"
         d="m 39.523838,35.484339 c 0.160306,-1.656496 0.34733,-3.259556 0.561071,-4.809181 -4.862616,-2.992379 -9.912255,-4.996204 -15.148919,-6.011476 1.015272,5.290099 3.019097,10.419892 6.011476,15.389378 1.49619,-0.267177 3.019097,-0.4542 4.568722,-0.561071 1.709931,-0.05343 3.20612,0.106871 4.488568,0.480918 -0.374047,-1.282448 -0.534353,-2.778638 -0.480918,-4.488568"
         style="fill:#25a65c;stroke:none"
         inkscape:connector-curvature="0" />
      <path
         id="path4594"
         d="m 64.371271,39.491989 c 1.389319,0.106871 2.778638,0.267177 4.167957,0.480918 2.938944,-4.916051 4.916051,-10.019126 5.931323,-15.309225 -5.129793,0.961836 -10.019127,2.858791 -14.668001,5.690864 0.213741,1.656495 0.400765,3.366426 0.561071,5.129793 0.05344,1.70993 -0.106871,3.20612 -0.480918,4.488568 1.282448,-0.374047 2.778638,-0.534353 4.488568,-0.480918 0,0 0,0 0,0"
         style="fill:#25a65c;stroke:none"
         inkscape:connector-curvature="0" />
      <path
         id="path83"
         d="m 35.516188,60.331772 c 1.709931,0.05344 3.20612,-0.106871 4.488568,-0.480918 -0.374047,1.282448 -0.534353,2.778637 -0.480918,4.488568 0.106871,1.335884 0.267177,2.671767 0.480918,4.007651 1.389319,10.366456 4.70231,19.450463 9.938974,27.252023 0,0 0,-39.515434 0,-39.515434 -0.267177,-4.328262 -2.324438,-6.385523 -6.171782,-6.171782 0,0 -39.5154341,0 -39.5154341,0 7.5343831,5.076358 16.2710611,8.362631 26.2100341,9.858821 1.656496,0.213741 3.339709,0.400765 5.04964,0.561071"
         style="display:inline;fill:#29b866;stroke:none"
         inkscape:connector-curvature="0" />
      <path
         id="path81"
         d="m 54.352145,54.320296 c 0.748095,2.885508 2.591614,4.729028 5.530558,5.530558 1.282448,0.374047 2.778638,0.534353 4.488568,0.480918 1.603061,-0.106871 3.152685,-0.267177 4.648875,-0.480918 10.099279,-1.49619 18.969546,-4.809181 26.610799,-9.938974 0,0 -39.515434,0 -39.515434,0 -2.030543,0.05344 -2.645049,1.49619 -1.843519,4.328263 0,0 0,0.08015 0,0.08015 0,0 0.08015,0 0.08015,0"
         style="display:inline;fill:#29b866;stroke:none"
         inkscape:connector-curvature="0" />
      <path
         id="path4596"
         d="m 40.084909,30.675158 c -0.213741,1.549625 -0.400765,3.152685 -0.561071,4.809181 -0.05344,1.70993 0.106871,3.20612 0.480918,4.488568 2.137414,4.114521 5.450405,6.064911 9.938974,5.85117 0,0 0,-41.5994123 0,-41.5994123 -5.129793,7.5878183 -8.416066,16.4046493 -9.858821,26.4504933 0,0 0,0 0,0"
         style="display:inline;fill:#29b866;stroke:none"
         inkscape:connector-curvature="0" />
      <path
         id="path4598"
         d="m 68.539228,39.972907 c -1.389319,-0.213741 -2.778638,-0.374047 -4.167957,-0.480918 -1.70993,-0.05343 -3.20612,0.106871 -4.488568,0.480918 0.374047,-1.282448 0.534353,-2.778638 0.480918,-4.488568 -0.160306,-1.763367 -0.34733,-3.473298 -0.561071,-5.129793 -1.49619,-9.885538 -4.782463,-18.595498 -9.85882,-26.1298813 0,0 0,41.5994123 0,41.5994123 -4.488569,0.213741 -7.80156,-1.736649 -9.938974,-5.85117 -1.282448,-0.374047 -2.778637,-0.534353 -4.488568,-0.480918 -1.549625,0.106871 -3.072532,0.293894 -4.568722,0.561071 -10.099279,1.389319 -18.996263,4.675592 -26.6909521,9.85882 0,0 39.5154341,0 39.5154341,0 3.847344,-0.213741 5.904605,1.84352 6.171782,6.171782 0,0 0,39.515434 0,39.515434 5.236663,-7.748124 8.549654,-16.751979 9.938973,-27.011564 0.213741,-1.389319 0.374047,-2.805356 0.480918,-4.24811 0.05344,-1.709931 -0.106871,-3.20612 -0.480918,-4.488568 -2.938944,-0.80153 -4.782463,-2.64505 -5.530558,-5.530558 0,0 -0.08015,0 -0.08015,0 0,0 0,-0.08015 0,-0.08015 -0.80153,-2.832073 -0.187024,-4.274827 1.843519,-4.328263 0,0 39.515434,0 39.515434,0 -7.801559,-5.236663 -16.832132,-8.549654 -27.091717,-9.938973 0,0 0,0 0,0"
         style="display:inline;fill:#2ecc71;stroke:none"
         inkscape:connector-curvature="0" />
    </g>
  </g>
  <g
     style="display:inline"
     id="bush-4">
    <g
       id="use3723">
      <path
         style="display:inline;fill:#229c56;stroke:none"
         d="m 85.47032,14.686014 c 0,0 0.07823,0 0.07823,0 C 75.743177,4.8806368 63.929783,-0.022052 50.108374,-0.022052 c -13.873566,0 -25.68696,4.9026888 -35.440181,14.708066 -9.7532216,9.701065 -14.6298322,21.488381 -14.6298322,35.361947 0,13.82141 4.8766106,25.634803 14.6298322,35.440181 0,0 0,0.07823 0,0.07823 9.805377,9.701065 21.618771,14.551598 35.440181,14.551598 13.769253,0 25.556569,-4.850533 35.361946,-14.551598 0,0 0.07823,0 0.07823,0 9.753221,-9.805377 14.62984,-21.644849 14.62984,-35.518415 0,-13.873566 -4.902697,-25.660882 -14.708075,-35.361947"
         id="path861"
         inkscape:connector-curvature="0" />
      <path
         style="display:inline;fill:#2ecc71;stroke:none"
         d="M 83.279757,16.876577 C 74.100255,7.697075 63.043127,3.1073238 50.108374,3.1073238 c -12.98691,0 -24.070116,4.5897512 -33.249618,13.7692532 -9.1273464,9.127346 -13.6910194,20.184474 -13.6910194,33.171384 0,12.986909 4.563673,24.070115 13.6910194,33.249618 9.179502,9.127346 20.262708,13.691019 33.249618,13.691019 12.934753,0 23.991881,-4.563673 33.171383,-13.691019 9.179502,-9.179503 13.769254,-20.262709 13.769254,-33.249618 0,-12.98691 -4.589752,-24.044038 -13.769254,-33.171384"
         id="path857"
         inkscape:connector-curvature="0" />
      <path
         style="display:inline;fill:#2bbf6a;stroke:none"
         d="m 87.817352,34.401082 c 0.312938,-0.41725 0.599797,-0.860579 0.860578,-1.329985 0.938813,-1.564688 1.12136,-2.764282 0.547641,-3.598782 -0.625875,-1.095282 -1.799391,-1.564688 -3.520548,-1.408219 -0.41725,0 -0.808422,0.05216 -1.173516,0.156469 C 82.914663,25.76922 81.037038,23.474345 78.898631,21.335938 70.918723,13.35603 61.32197,9.3660754 50.108374,9.3660754 c -11.265753,0 -20.862506,3.9899546 -28.790258,11.9698626 -7.927752,7.875596 -11.8916278,17.44627 -11.8916278,28.712023 0,11.265753 3.9638758,20.888583 11.8916278,28.868492 2.294876,2.294875 4.74622,4.250735 7.354033,5.867579 -0.156468,0.625875 -0.234703,1.277829 -0.234703,1.95586 -0.05216,1.825469 0.391172,2.946829 1.329985,3.364079 1.043125,0.625875 2.294875,0.469406 3.755251,-0.469406 0.625875,-0.41725 1.225672,-0.912735 1.799391,-1.486454 4.537595,1.721157 9.466362,2.581735 14.786301,2.581735 11.213596,0 20.810349,-3.937798 28.790257,-11.813393 7.927752,-7.979909 11.891628,-17.602739 11.891628,-28.868492 0,-5.632877 -0.990969,-10.848503 -2.972907,-15.646879"
         id="path837"
         inkscape:connector-curvature="0" />
      <path
         style="display:inline;fill:#2ecc71;stroke:none"
         d="m 38.686152,21.805344 c 0.312938,-1.460375 0.964891,-2.347032 1.95586,-2.659969 0.990969,-0.208625 1.981938,0.234703 2.972907,1.329984 0.469406,0.521563 0.912734,1.147438 1.329985,1.877626 1.669,-0.312938 3.390157,-0.469406 5.16347,-0.469406 7.771283,0 14.421206,2.764282 19.94977,8.292845 5.476408,5.476408 8.214612,12.100254 8.214612,19.871537 0,7.823439 -2.738204,14.499441 -8.214612,20.028005 0.312938,0.730188 0.547641,1.460375 0.70411,2.190563 0.365094,1.721157 0.05216,2.946829 -0.938813,3.677017 -0.782344,0.730187 -2.008016,0.730187 -3.677016,0 -0.782344,-0.312938 -1.53861,-0.730188 -2.268798,-1.251751 -4.120345,2.347032 -8.710096,3.520548 -13.769253,3.520548 -7.771284,0 -14.421207,-2.712126 -19.949771,-8.136377 0,0 0,-0.07823 0,-0.07823 -5.476408,-5.528564 -8.214612,-12.178488 -8.214612,-19.949771 0,-2.190563 0.208625,-4.276814 0.625876,-6.258752 -0.312938,-0.260781 -0.599797,-0.521562 -0.860579,-0.782344 -1.512531,-1.408219 -2.08625,-2.738204 -1.721156,-3.989954 0.365093,-1.303906 1.538609,-2.216641 3.520547,-2.738204 0.678032,-0.156469 1.382141,-0.234703 2.112329,-0.234703 0.886656,-1.616844 1.981938,-3.155454 3.285845,-4.615829 1.981938,-2.503501 4.381126,-4.459361 7.197564,-5.86758 0.730188,-0.469406 1.512532,-0.886656 2.347032,-1.25175 -0.05216,-0.886657 0.02608,-1.721157 0.234703,-2.503501"
         id="path554"
         inkscape:connector-curvature="0" />
      <path
         style="display:inline;fill:#2bbf6a;stroke:none"
         d="m 46.978998,34.714019 c -3.025063,0.521563 -5.685033,1.95586 -7.979908,4.302892 -3.025064,3.025063 -4.537595,6.70208 -4.537595,11.03105 0,4.32897 1.512531,8.032064 4.537595,11.109284 0,0 0,0.07823 0,0.07823 2.868594,2.816439 6.310907,4.302892 10.32694,4.459361 0.208625,0.312937 0.443328,0.625875 0.704109,0.938813 1.147438,1.356062 2.216641,1.929781 3.20761,1.721156 1.251751,-0.208625 2.086251,-1.147438 2.503501,-2.816438 0.104313,-0.312938 0.182547,-0.625875 0.234703,-0.938813 1.877626,-0.730187 3.624861,-1.877625 5.241705,-3.442313 0.156468,-0.208625 0.365094,-0.41725 0.625875,-0.625875 2.607813,-2.920751 3.91172,-6.415221 3.91172,-10.483409 0,-1.981938 -0.312938,-3.833486 -0.938813,-5.554642 0.521562,-0.573719 0.964891,-1.199594 1.329985,-1.877626 0.938812,-1.564688 1.121359,-2.764282 0.54764,-3.598782 -0.625875,-1.095281 -1.799391,-1.564688 -3.520547,-1.408219 -0.938813,0.05216 -1.877626,0.234703 -2.816439,0.547641 -2.190563,-1.877626 -4.667985,-3.051142 -7.432267,-3.520548 -1.981938,-0.260781 -3.963876,-0.234703 -5.945814,0.07823 0,0 0,0 0,0"
         id="path4575"
         inkscape:connector-curvature="0" />
    </g>
  </g>
  <g
     style="display:inline"
     id="bush-3">
    <g
       id="use3719">
      <path
         d="m 17.409471,39.327318 c -0.623445,0.383659 -1.007104,0.935168 -1.150976,1.654527 -0.239786,0.671403 -0.191829,1.342805 0.143872,2.014208 4.987561,10.262865 13.428049,16.449359 25.321463,18.559481 1.150976,0.19183 2.253994,0.239787 3.309055,0.143872 5.131433,9.255762 12.804604,14.890747 23.019512,16.904954 0.71936,0.143872 1.390762,0.04796 2.014207,-0.287744 0.623446,-0.383658 1.055061,-0.911189 1.294848,-1.582591 2.877439,-8.440488 2.541738,-16.593232 -1.007104,-24.458232 7.481342,-7.337469 10.886311,-16.161615 10.214909,-26.472438 -0.04796,-0.767317 -0.311723,-1.390762 -0.791296,-1.870336 -0.52753,-0.52753 -1.150976,-0.815274 -1.870335,-0.863231 -11.413842,-0.767317 -20.981326,3.476905 -28.702454,12.732667 0,0 0,-0.07194 0,-0.07194 -0.143872,0.09591 -0.239787,0.215808 -0.287744,0.35968 -0.143872,-0.04796 -0.287744,-0.09591 -0.431616,-0.143872 0,0 0.07194,0.07194 0.07194,0.07194 -11.317927,-4.172286 -21.700686,-3.069268 -31.148277,3.309055 m 30.141173,-0.647424 c 0.911189,0.287744 1.702485,0.671403 2.373887,1.150976 0.335702,-0.767317 0.815275,-1.510656 1.43872,-2.230015 C 58.460934,29.160367 67.237123,25.275824 77.691818,25.947227 78.36322,36.114178 74.742443,44.674559 66.829486,51.62837 70.8579,59.349498 71.457367,67.406327 68.627885,75.798857 58.604806,73.78465 51.267336,68.005793 46.615477,58.462287 c -1.342805,0.431616 -2.805503,0.503552 -4.388095,0.215808 -10.886311,-1.918292 -18.631417,-7.577256 -23.23532,-16.97689 8.680275,-5.802835 18.199802,-6.809939 28.558582,-3.021311 0,0 0,0 0,0"
         id="path4551"
         style="display:inline;fill:#229c56;stroke:none"
         inkscape:connector-curvature="0" />
      <path
         style="display:inline;fill:#2ecc71;stroke:none"
         d="m 66.03819,52.275793 c -3.261098,2.733568 -6.857896,2.829482 -10.790396,0.287744 0,0 13.380091,23.23532 13.380091,23.23532 2.829482,-8.39253 2.230015,-16.449359 -1.798399,-24.170487 -0.287744,0.239786 -0.55151,0.455594 -0.791296,0.647423"
         id="path86"
         inkscape:connector-curvature="0" />
      <path
         style="display:inline;fill:#2ecc71;stroke:none"
         d="m 49.924531,39.83087 c -0.671402,-0.479573 -1.462698,-0.863232 -2.373887,-1.150976 -10.35878,-3.788628 -19.878307,-2.781524 -28.558582,3.021311 0,0 33.881844,9.063933 33.881844,9.063933 0,0 24.817912,-24.817911 24.817912,-24.817911 -10.454695,-0.671403 -19.230884,3.21314 -26.328567,11.653628 -0.623445,0.719359 -1.103018,1.462698 -1.43872,2.230015 0,0 0,0 0,0"
         id="path4553"
         inkscape:connector-curvature="0" />
      <path
         d="m 55.247794,52.563537 c 3.9325,2.541738 7.529298,2.445824 10.790396,-0.287744 0.239786,-0.191829 0.503552,-0.407637 0.791296,-0.647423 7.912957,-6.953811 11.533734,-15.514192 10.862332,-25.681143 0,0 -24.817912,24.817911 -24.817912,24.817911 0,0 -33.881844,-9.063933 -33.881844,-9.063933 4.603903,9.399634 12.349009,15.058598 23.23532,16.97689 1.582592,0.287744 3.04529,0.215808 4.388095,-0.215808 4.651859,9.543506 11.989329,15.322363 22.012408,17.33657 0,0 -13.380091,-23.23532 -13.380091,-23.23532"
         id="path4555"
         style="display:inline;fill:#29b866;stroke:none"
         inkscape:connector-curvature="0" />
    </g>
  </g>
  <g
     style="display:inline"
     id="bush-2">
    <g
       id="use2847">
      <path
         style="fill:#229c56;stroke:none"
         id="path4435"
         d="m 33.201399,32.280883 c -2.330242,2.376847 -3.495363,5.196439 -3.495363,8.458778 0,0.699072 0.0466,1.374843 0.139815,2.02731 -0.885492,1.398145 -1.398145,2.912803 -1.53796,4.543972 -0.09321,0.466048 -0.139814,0.932097 -0.139814,1.398145 0,0.699072 0.06991,1.421447 0.209721,2.167125 0,0 0,0.139814 0,0.139814 0.139815,0.512654 0.326234,1.071912 0.559258,1.677774 0,0 0,0.06991 0,0.06991 0.233025,0.652467 0.559258,1.304935 0.978702,1.957403 -0.0466,0.326234 -0.09321,0.699072 -0.139815,1.118516 0,0.0466 0,0.09321 0,0.139814 0,0.233025 0,0.442746 0,0.629166 0,3.402153 1.188424,6.245048 3.56527,8.528685 0,0 0,0.06991 0,0.06991 2.376847,2.376847 5.219742,3.56527 8.528686,3.56527 0.652467,0 1.281633,-0.0466 1.887495,-0.139814 1.817589,1.165121 3.844899,1.770983 6.081932,1.817588 0,0 0.06991,0 0.06991,0 2.237032,0 4.24104,-0.58256 6.012024,-1.747681 0.605863,0.09321 1.211726,0.139814 1.817588,0.139814 3.355549,0 6.221746,-1.165121 8.598593,-3.495362 2.283637,-2.330242 3.425455,-5.19644 3.425455,-8.598593 0,-0.186419 0,-0.349536 0,-0.489351 0,-0.139814 0,-0.256326 0,-0.349536 -0.0466,-0.326234 -0.09321,-0.629165 -0.139814,-0.908794 0.326234,-0.559258 0.652467,-1.141819 0.978701,-1.747681 0.0466,-0.0466 0.06991,-0.09321 0.06991,-0.139815 0.279629,-0.605863 0.466048,-1.235028 0.559258,-1.887496 0,-0.09321 0.0233,-0.163117 0.06991,-0.209722 0,0 0,-0.06991 0,-0.06991 0,-0.0466 0,-0.09321 0,-0.139814 0.139814,-0.652468 0.209722,-1.304936 0.209722,-1.957404 0,-0.512653 -0.0233,-0.978701 -0.06991,-1.398145 -0.233024,-1.724379 -0.838887,-3.308943 -1.817588,-4.753693 0.0466,-0.559258 0.06991,-1.141818 0.06991,-1.747681 -0.0466,-3.308944 -1.211726,-6.151839 -3.495363,-8.528685 0,0 0,-0.06991 0,-0.06991 -2.376846,-2.376846 -5.266346,-3.56527 -8.668499,-3.56527 -0.605863,0 -1.211726,0.0466 -1.817589,0.139815 -1.770984,-1.165121 -3.751689,-1.770984 -5.942117,-1.817589 0,0 -0.06991,0 -0.06991,0 -2.283637,0 -4.33425,0.605863 -6.151838,1.817589 -0.605863,-0.09321 -1.211726,-0.139815 -1.817589,-0.139815 -3.308943,0 -6.151838,1.165121 -8.528685,3.495363 m -0.699073,8.458778 c 0,-2.516661 0.885492,-4.683786 2.656476,-6.501375 1.817589,-1.770984 4.008016,-2.656476 6.571282,-2.656476 0.885492,0 1.724379,0.09321 2.516661,0.279629 1.584565,-1.304935 3.402153,-1.957403 5.452766,-1.957403 2.050613,0.0466 3.844899,0.722375 5.382859,2.027311 0.792282,-0.233024 1.607867,-0.349537 2.446754,-0.349537 2.609871,0 4.8236,0.908795 6.641189,2.726383 1.770984,1.864194 2.679778,4.077924 2.726383,6.64119 0,0.559258 -0.0466,1.095213 -0.139815,1.607867 -0.04661,0.279629 -0.116512,0.559258 -0.209721,0.838887 0.186419,0.186419 0.372838,0.396141 0.559258,0.629165 0.838887,1.165121 1.35154,2.423451 1.537959,3.774992 0.0466,0.326233 0.06991,0.67577 0.06991,1.048608 0,0.559258 -0.06991,1.118517 -0.209721,1.677775 -0.0466,0.512653 -0.18642,1.002004 -0.419444,1.468052 -0.372839,0.838887 -0.862189,1.607867 -1.468052,2.306939 0.139814,0.652468 0.256326,1.304936 0.349536,1.957403 0,0.139815 0,0.302932 0,0.489351 0,2.609871 -0.885492,4.800298 -2.656476,6.571282 -1.817588,1.817589 -4.008016,2.726383 -6.571282,2.726383 -0.885491,0 -1.701076,-0.116512 -2.446754,-0.349536 -1.537959,1.304935 -3.332245,1.957403 -5.382858,1.957403 -2.097218,-0.0466 -3.938109,-0.722375 -5.522673,-2.02731 -0.792283,0.233024 -1.63117,0.349536 -2.516661,0.349536 -2.563266,0 -4.753694,-0.932097 -6.571282,-2.79629 -1.817589,-1.770984 -2.726383,-3.961411 -2.726383,-6.571282 0,-0.18642 0,-0.396141 0,-0.629166 0.0466,-0.699072 0.163117,-1.35154 0.349536,-1.957403 -0.652468,-0.745677 -1.118516,-1.514657 -1.398145,-2.306939 -0.18642,-0.466048 -0.326234,-0.908794 -0.419444,-1.328238 -0.09321,-0.559258 -0.139814,-1.118516 -0.139814,-1.677774 0,-0.372839 0.0233,-0.745677 0.06991,-1.118516 0.139815,-1.211726 0.559258,-2.353544 1.258331,-3.425456 0.186419,-0.279629 0.372838,-0.535955 0.559258,-0.768979 -0.0466,-0.326234 -0.116512,-0.629166 -0.209722,-0.908795 -0.09321,-0.559258 -0.139815,-1.141818 -0.139815,-1.747681 0,0 0,0 0,0"
         inkscape:connector-curvature="0" />
      <path
         style="fill:#29b866;stroke:none"
         id="path4437"
         d="m 32.572234,55.979442 c 0,0.233025 0,0.442746 0,0.629166 0,2.609871 0.908794,4.800298 2.726383,6.571282 1.817588,1.864193 4.008016,2.79629 6.571282,2.79629 0.885491,0 1.724378,-0.116512 2.516661,-0.349536 1.584564,1.304935 3.425455,1.980705 5.522673,2.02731 2.050613,0 3.844899,-0.652468 5.382858,-1.957403 0.745678,0.233024 1.561263,0.349536 2.446754,0.349536 2.563266,0 4.753694,-0.908794 6.571282,-2.726383 1.770984,-1.770984 2.656476,-3.961411 2.656476,-6.571282 0,-0.186419 0,-0.349536 0,-0.489351 -0.466048,0.792283 -1.048609,1.53796 -1.747681,2.237033 -1.910799,1.957403 -4.24104,2.936104 -6.990726,2.936104 -0.932097,-0.0466 -1.794286,-0.163117 -2.586568,-0.349536 -1.677774,1.398145 -3.588573,2.073915 -5.732395,2.02731 -2.237032,0 -4.194435,-0.699072 -5.87221,-2.097217 -0.838887,0.233024 -1.724379,0.349536 -2.656475,0.349536 -2.749686,0 -5.10323,-1.002004 -7.060633,-3.006012 -0.699073,-0.699072 -1.281633,-1.491355 -1.747681,-2.376847 0,0 0,0 0,0"
         inkscape:connector-curvature="0" />
      <path
         style="fill:#2ecc71;stroke:none"
         id="path4439"
         d="m 35.158802,34.238286 c -1.770984,1.817589 -2.656476,3.984714 -2.656476,6.501375 0,0.605863 0.04661,1.188423 0.139815,1.747681 0.09321,0.279629 0.163117,0.582561 0.209722,0.908795 -0.18642,0.233024 -0.372839,0.48935 -0.559258,0.768979 -0.699073,1.071912 -1.118516,2.21373 -1.258331,3.425456 -0.0466,0.372839 -0.06991,0.745677 -0.06991,1.118516 0,0.559258 0.0466,1.118516 0.139814,1.677774 0.09321,0.419444 0.233024,0.86219 0.419444,1.328238 0.279629,0.792282 0.745677,1.561262 1.398145,2.306939 -0.186419,0.605863 -0.302932,1.258331 -0.349536,1.957403 0.466048,0.885492 1.048608,1.677775 1.747681,2.376847 1.957403,2.004008 4.310947,3.006012 7.060633,3.006012 0.932096,0 1.817588,-0.116512 2.656475,-0.349536 1.677775,1.398145 3.635178,2.097217 5.87221,2.097217 2.143822,0.0466 4.054621,-0.629165 5.732395,-2.02731 0.792282,0.186419 1.654471,0.302932 2.586568,0.349536 2.749686,0 5.079927,-0.978701 6.990726,-2.936104 0.699072,-0.699073 1.281633,-1.44475 1.747681,-2.237033 -0.09321,-0.652467 -0.209722,-1.304935 -0.349536,-1.957403 0.605863,-0.699072 1.095213,-1.468052 1.468052,-2.306939 0.233024,-0.466048 0.372839,-0.955399 0.419444,-1.468052 0.139814,-0.559258 0.209721,-1.118517 0.209721,-1.677775 0,-0.372838 -0.0233,-0.722375 -0.06991,-1.048608 -0.186419,-1.351541 -0.699072,-2.609871 -1.537959,-3.774992 -0.18642,-0.233024 -0.372839,-0.442746 -0.559258,-0.629165 0.09321,-0.279629 0.163116,-0.559258 0.209721,-0.838887 0.09321,-0.512654 0.139815,-1.048609 0.139815,-1.607867 -0.0466,-2.563266 -0.955399,-4.776996 -2.726383,-6.64119 -1.817589,-1.817588 -4.031318,-2.726383 -6.641189,-2.726383 -0.838887,0 -1.654472,0.116513 -2.446754,0.349537 -1.53796,-1.304936 -3.332246,-1.980706 -5.382859,-2.027311 -2.050613,0 -3.868201,0.652468 -5.452766,1.957403 -0.792282,-0.186419 -1.631169,-0.279629 -2.516661,-0.279629 -2.563266,0 -4.753693,0.885492 -6.571282,2.656476 m 4.893508,3.774992 c 0.559258,-0.512653 1.398145,-0.629165 2.516661,-0.349536 1.071911,0.326234 2.12052,0.978701 3.145827,1.957403 0.0466,0.09321 0.09321,0.139814 0.139814,0.139814 -0.0466,0.0466 -0.0233,0.06991 0.06991,0.06991 0.419444,0.512653 0.605863,1.118516 0.559258,1.817588 0,0.792282 -0.233024,1.468053 -0.699072,2.027311 -0.605863,0.512653 -1.281633,0.768979 -2.027311,0.768979 -0.745677,0.0466 -1.374842,-0.186419 -1.887495,-0.699072 -0.0466,0 -0.09321,-0.0233 -0.139815,-0.06991 -1.025306,-1.025307 -1.677774,-2.097218 -1.957403,-3.215734 -0.372839,-1.118516 -0.279629,-1.934101 0.279629,-2.446754 m 3.075919,8.039334 c 0,0 0.06991,0.06991 0.06991,0.06991 0.605863,0 1.141819,0.209721 1.607867,0.629165 0.466049,0.466048 0.67577,1.048609 0.629166,1.747681 0,0.652468 -0.209722,1.188424 -0.629166,1.607867 -0.466048,0.512653 -1.002004,0.792282 -1.607867,0.838887 0,0 -0.139814,0 -0.139814,0 -1.304936,0 -2.376847,-0.279629 -3.215734,-0.838887 -0.885492,-0.419443 -1.328238,-0.978702 -1.328238,-1.677774 0,-0.605863 0.466049,-1.141819 1.398145,-1.607867 0.838887,-0.512653 1.887496,-0.76898 3.145827,-0.76898 0,0 0.06991,0 0.06991,0 m 6.781004,-6.781003 c 0.559258,-0.652468 1.141818,-0.908795 1.747681,-0.76898 0.512653,0.186419 0.838887,0.67577 0.978702,1.468052 0.186419,0.932097 0.163117,1.934101 -0.06991,3.006012 0,0.0466 -0.0233,0.06991 -0.06991,0.06991 -0.139814,0.466049 -0.419443,0.86219 -0.838887,1.188424 -0.512653,0.233024 -1.025306,0.256326 -1.537959,0.06991 -0.699073,-0.09321 -1.141819,-0.372839 -1.328238,-0.838887 -0.279629,-0.512653 -0.372839,-1.002004 -0.279629,-1.468053 -0.0466,0 -0.06991,-0.0233 -0.06991,-0.06991 0,0 0,-0.06991 0,-0.06991 0.326233,-1.071911 0.815584,-1.934101 1.468052,-2.586568 0,0 0,0 0,0"
         inkscape:connector-curvature="0" />
      <path
         style="fill:#31d978;stroke:none"
         d="m 51.656914,38.502629 c -0.605863,-0.139815 -1.188423,0.116512 -1.747681,0.76898 -0.652468,0.652467 -1.141819,1.514657 -1.468052,2.586568 0,0 0,0.06991 0,0.06991 0,0.0466 0.0233,0.06991 0.06991,0.06991 -0.09321,0.466049 0,0.9554 0.279629,1.468053 0.186419,0.466048 0.629165,0.745677 1.328238,0.838887 0.512653,0.186419 1.025306,0.163117 1.537959,-0.06991 0.419444,-0.326234 0.699073,-0.722375 0.838887,-1.188424 0.0466,0 0.06991,-0.0233 0.06991,-0.06991 0.233024,-1.071911 0.256326,-2.073915 0.06991,-3.006012 -0.139815,-0.792282 -0.466049,-1.281633 -0.978702,-1.468052"
         id="path92"
         inkscape:connector-curvature="0" />
      <path
         style="fill:#31d978;stroke:none"
         d="m 43.198144,46.12252 c 0,0 -0.06991,-0.06991 -0.06991,-0.06991 0,0 -0.06991,0 -0.06991,0 -1.258331,0 -2.30694,0.256327 -3.145827,0.76898 -0.932096,0.466048 -1.398145,1.002004 -1.398145,1.607867 0,0.699072 0.442746,1.258331 1.328238,1.677774 0.838887,0.559258 1.910798,0.838887 3.215734,0.838887 0,0 0.139814,0 0.139814,0 0.605863,-0.0466 1.141819,-0.326234 1.607867,-0.838887 0.419444,-0.419443 0.629166,-0.955399 0.629166,-1.607867 0.0466,-0.699072 -0.163117,-1.281633 -0.629166,-1.747681 -0.466048,-0.419444 -1.002004,-0.629165 -1.607867,-0.629165"
         id="path90"
         inkscape:connector-curvature="0" />
      <path
         style="fill:#31d978;stroke:none"
         d="m 42.568973,37.66374 c -1.118516,-0.279629 -1.957403,-0.163117 -2.516661,0.349536 -0.559258,0.512653 -0.652468,1.328238 -0.279629,2.446754 0.279629,1.118516 0.932097,2.190427 1.957403,3.215734 0.0466,0.0466 0.09321,0.06991 0.139815,0.06991 0.512653,0.512653 1.141818,0.745677 1.887495,0.699072 0.745678,0 1.421448,-0.256326 2.027311,-0.768979 0.466048,-0.559258 0.699072,-1.235029 0.699072,-2.027311 0.0466,-0.699072 -0.139814,-1.304935 -0.559258,-1.817588 -0.09321,0 -0.116512,-0.0233 -0.06991,-0.06991 -0.0466,0 -0.09321,-0.0466 -0.139814,-0.139814 -1.025307,-0.978702 -2.073916,-1.631169 -3.145827,-1.957403 0,0 0,0 0,0"
         id="path4441"
         inkscape:connector-curvature="0" />
    </g>
  </g>
  <g
     style="display:inline"
     id="bush-1">
    <g
       id="use3715">
      <path
         d="M 95.523507,34.955796 C 95.731708,33.498386 95.835809,31.9629 95.835809,30.349339 95.783758,23.062288 93.207265,16.868294 88.106329,11.767358 83.005393,6.6143717 76.837425,4.0118534 69.602424,3.9598031 c 0,0 -0.07808,0 -0.07808,0 -1.925863,0 -3.747626,0.2082014 -5.465288,0.6246043 C 59.947081,1.5654862 55.262548,0.03000037 50.005461,-0.02205 c 0,0 -0.07808,0 -0.07808,0 -5.309137,0 -10.019695,1.5094606 -14.131674,4.5283819 C 34.025998,4.089929 32.12616,3.8817275 30.096196,3.8817275 c -7.182951,0 -13.350919,2.550468 -18.503906,7.6514035 -5.0488853,5.048886 -7.5733281,11.190829 -7.5733281,18.42583 0,1.717662 0.1821763,3.357249 0.5465289,4.91876 0,0 0,-0.07808 0,-0.07808 0.05205,0.312302 0.1301259,0.624605 0.2342266,0.936907 -0.2602518,0.312302 -0.5205036,0.624604 -0.7807555,0.936907 0,0 0,0.07807 0,0.07807 C 1.9889976,39.770446 0.79183922,43.075645 0.42748665,46.66712 0.27133555,47.656086 0.19326,48.697093 0.19326,49.790151 c 0,1.561511 0.1561511,3.096997 0.4684533,4.606457 0,0 0,-0.07807 0,-0.07807 0.20820147,1.353309 0.572554,2.654568 1.0930577,3.903777 0.6766548,1.925864 1.6916369,3.773652 3.0449464,5.543364 -0.2602518,1.197159 -0.4424281,2.446368 -0.5465288,3.747627 -0.05205,0.624604 -0.078076,1.249209 -0.078076,1.873813 0,0 0,0.07807 0,0.07807 0.05205,7.235001 2.6285436,13.428995 7.7294804,18.581981 5.205036,5.100936 11.373005,7.651404 18.503905,7.651404 1.977914,0 3.851727,-0.182176 5.621439,-0.546529 4.16403,3.123022 8.926638,4.710559 14.287826,4.762609 5.413238,0.05205 10.149822,-1.45741 14.20975,-4.528382 1.717662,0.312302 3.487375,0.494479 5.309138,0.546529 0,0 0.07807,0 0.07807,0 7.235001,0 13.40297,-2.550468 18.503906,-7.651404 0,0 -0.07808,0 -0.07808,0 5.100936,-5.048886 7.651404,-11.216854 7.651404,-18.503905 0,-0.468454 0,-0.910882 0,-1.327285 0,-0.1041 0,-0.208201 0,-0.312302 -0.104101,-1.249209 -0.286277,-2.446367 -0.546529,-3.591475 1.249209,-1.717662 2.238166,-3.5134 2.966871,-5.387213 0,0 0,-0.07808 0,-0.07808 0.624604,-1.40536 1.067032,-2.86277 1.327284,-4.37223 0,0 -0.07807,0.07807 -0.07807,0.07807 0.312302,-1.509461 0.468453,-3.070972 0.468453,-4.684533 0,-1.041007 -0.052,-2.029964 -0.156151,-2.966871 -0.520504,-3.955828 -1.899838,-7.547303 -4.138004,-10.774426 -0.05205,-0.05205 -0.104101,-0.1041 -0.156151,-0.156151 -0.104101,-0.156151 -0.208202,-0.286277 -0.312303,-0.390378 0.05205,-0.312302 0.104101,-0.598579 0.156152,-0.858831 m -2.81072,-4.606457 c 0,1.45741 -0.104101,2.836745 -0.312302,4.138004 -0.104101,0.676655 -0.260252,1.35331 -0.468454,2.029964 0.416403,0.520504 0.858831,1.067033 1.327285,1.639587 2.029964,2.81072 3.253148,5.933742 3.66955,9.369066 0.104101,0.832806 0.156152,1.691637 0.156152,2.576493 0,1.40536 -0.130126,2.75867 -0.390378,4.059929 -0.208202,1.301259 -0.572554,2.550468 -1.093058,3.747626 -0.832806,2.082015 -2.029964,4.033904 -3.591475,5.855666 0.416403,1.509461 0.70268,3.070972 0.858831,4.684533 0,0.416403 0,0.858831 0,1.327285 0,6.402195 -2.238166,11.815433 -6.714497,16.239714 -4.476332,4.528382 -9.88957,6.792573 -16.239715,6.792573 -2.134065,-0.05205 -4.190054,-0.338327 -6.167968,-0.858831 -3.747627,3.279173 -8.223958,4.892734 -13.428995,4.840684 -5.152986,-0.05205 -9.681368,-1.717662 -13.585146,-4.996835 -1.925863,0.520503 -4.033903,0.780755 -6.324119,0.780755 -6.298095,0 -11.737358,-2.264191 -16.31779,-6.792573 C 9.614372,81.254589 7.350181,75.7893 7.2981306,69.387105 c 0,-0.520504 0.026025,-1.041007 0.078076,-1.561511 0.1041047,-1.665603 0.3643566,-3.253139 0.7807595,-4.7626 C 6.5954551,61.189181 5.4243218,59.211267 4.6435664,57.129253 4.2271634,56.036195 3.9148612,54.917112 3.7066598,53.772004 3.4464079,52.470745 3.316282,51.14346 3.316282,49.790151 c 0,-0.988957 0.078076,-1.925864 0.2342266,-2.81072 C 3.8628108,43.908459 4.877793,41.071714 6.5954551,38.469196 7.0639084,37.792541 7.5583869,37.141912 8.0788906,36.517307 7.9227394,35.736552 7.7665883,34.955796 7.6104373,34.175041 7.298135,32.821731 7.1419839,31.416371 7.1419839,29.958961 c 0,-6.350145 2.2121406,-11.763383 6.6364221,-16.239714 4.528382,-4.4763317 9.967645,-6.7144975 16.31779,-6.7144975 2.290216,0 4.424281,0.286277 6.402195,0.858831 3.851727,-3.1750723 8.328058,-4.7626085 13.428994,-4.7626085 5.100936,0.05205 9.577268,1.6656117 13.428995,4.8406841 1.925864,-0.572554 3.981853,-0.8588311 6.167968,-0.8588311 6.402195,0.05205 11.841459,2.3422666 16.31779,6.870648 4.528382,4.528382 6.818598,9.993671 6.870649,16.395866 0,0 0,0 0,0"
         id="path4330"
         style="fill:#229c56;stroke:none"
         inkscape:connector-curvature="0" />
      <path
         d="m 50.317763,85.626828 c -5.517339,-0.05205 -10.331998,-1.847788 -14.443977,-5.387213 -2.082014,0.572554 -4.32018,0.858831 -6.714497,0.858831 -6.714497,0 -12.492088,-2.420342 -17.332772,-7.261026 -1.821763,-1.873813 -3.3051983,-3.877752 -4.4503064,-6.011817 -0.05205,0.520504 -0.078076,1.041007 -0.078076,1.561511 0.05205,6.402195 2.3162414,11.867484 6.7925734,16.395865 4.580432,4.528382 10.019695,6.792573 16.31779,6.792573 2.290216,0 4.398256,-0.260252 6.324119,-0.780755 3.903778,3.279173 8.43216,4.944785 13.585146,4.996835 5.205037,0.05205 9.681368,-1.561511 13.428995,-4.840684 1.977914,0.520504 4.033903,0.806781 6.167968,0.858831 6.350145,0 11.763383,-2.264191 16.239715,-6.792573 4.476331,-4.424281 6.714497,-9.837519 6.714497,-16.239714 0,-0.468454 0,-0.910882 0,-1.327285 -1.145108,2.029965 -2.602518,3.903778 -4.372231,5.62144 -4.736583,4.788634 -10.514174,7.182951 -17.332772,7.182951 -2.290216,-0.05205 -4.476332,-0.338328 -6.558346,-0.858832 -4.007878,3.539425 -8.770487,5.283113 -14.287826,5.231062 0,0 0,0 0,0"
         id="path4332"
         style="fill:#29b866;stroke:none"
         inkscape:connector-curvature="0" />
      <path
         d="m 92.400485,34.487343 c 0.208201,-1.301259 0.312302,-2.680594 0.312302,-4.138004 C 92.660736,23.947144 90.37052,18.481855 85.842138,13.953473 81.365807,9.4250916 75.926543,7.1348754 69.524348,7.082825 c -2.186115,0 -4.242104,0.2862771 -6.167968,0.8588311 C 59.504653,4.7665837 55.028321,3.1530224 49.927385,3.100972 c -5.100936,0 -9.577267,1.5875362 -13.428994,4.7626085 -1.977914,-0.572554 -4.111979,-0.858831 -6.402195,-0.858831 -6.350145,0 -11.789408,2.2381658 -16.31779,6.7144975 -4.4242815,4.476331 -6.6364221,9.889569 -6.6364221,16.239714 0,1.45741 0.1561511,2.86277 0.4684534,4.21608 0.156151,0.780755 0.3123021,1.561511 0.4684533,2.342266 -0.5205037,0.624605 -1.0149822,1.275234 -1.4834355,1.951889 -1.7176621,2.602518 -2.7326443,5.439263 -3.0449465,8.510235 -0.156151,0.884856 -0.2342266,1.821763 -0.2342266,2.81072 0,1.353309 0.1301259,2.680594 0.3903778,3.981853 0.2082014,1.145108 0.5205036,2.264191 0.9369066,3.357249 0.7807554,2.082014 1.9518887,4.059928 3.5133997,5.933741 -0.4164029,1.509461 -0.6766548,3.096997 -0.7807555,4.762609 1.1451081,2.134065 2.6285434,4.138004 4.4503064,6.011817 4.840684,4.840684 10.618275,7.261026 17.332772,7.261026 2.394317,0 4.632483,-0.286277 6.714497,-0.858831 4.111979,3.539425 8.926638,5.335163 14.443977,5.387213 5.517339,0.05205 10.279948,-1.691637 14.287826,-5.231062 2.082014,0.520504 4.26813,0.806781 6.558346,0.858832 6.818598,0 12.596189,-2.394317 17.332772,-7.182951 1.769713,-1.717662 3.227123,-3.591475 4.372231,-5.62144 -0.156151,-1.613561 -0.442428,-3.175072 -0.858831,-4.684533 1.561511,-1.821762 2.758669,-3.773651 3.591475,-5.855666 0.520504,-1.197158 0.884856,-2.446367 1.093058,-3.747626 0.260252,-1.301259 0.390378,-2.654569 0.390378,-4.059929 0,-0.884856 -0.05205,-1.743687 -0.156152,-2.576493 -0.416402,-3.435324 -1.639586,-6.558346 -3.66955,-9.369066 -0.468454,-0.572554 -0.910882,-1.119083 -1.327285,-1.639587 0.208202,-0.676654 0.364353,-1.353309 0.468454,-2.029964 M 38.372204,16.920344 c 1.041007,1.145108 1.821763,2.628544 2.342266,4.450307 0,0 0,0.07808 0,0.07808 0.05205,0.05205 0.07808,0.104101 0.07808,0.156151 0.156151,0.832806 0.02602,1.691637 -0.390378,2.576493 -0.520503,0.832806 -1.275234,1.35331 -2.264191,1.561511 -1.041007,0.364353 -1.951888,0.286278 -2.732644,-0.234226 -0.832806,-0.520504 -1.379335,-1.171133 -1.639587,-1.951889 -0.05205,-0.05205 -0.1041,-0.104101 -0.156151,-0.156151 0.05205,0 0.05205,-0.02602 0,-0.07808 -0.468453,-1.873813 -0.520503,-3.56545 -0.156151,-5.07491 0.312302,-1.457411 0.962932,-2.342267 1.951889,-2.654569 0.988957,-0.208201 1.977914,0.234227 2.966871,1.327284 m -10.618275,5.62144 c 0.05205,0.05205 0.104101,0.05205 0.156151,0 1.145108,0.364353 1.977914,1.093058 2.498418,2.186115 0.728705,1.197159 0.936906,2.446368 0.624604,3.747627 -0.416403,1.301259 -1.171133,2.264191 -2.264191,2.888795 -1.093057,0.624604 -2.238165,0.832806 -3.435324,0.624604 -0.05205,0 -0.130126,0 -0.234227,0 0,0 -0.07808,0 -0.07808,0 -2.394317,-0.676654 -4.320181,-1.717662 -5.777591,-3.123021 -1.50946,-1.40536 -2.082014,-2.732645 -1.717662,-3.981854 0.364353,-1.301259 1.535486,-2.21214 3.5134,-2.732644 1.925863,-0.468453 4.085954,-0.364352 6.48027,0.312302 0.104101,0.05205 0.182177,0.07808 0.234227,0.07808 m 1.639587,11.633257 c 0.884856,-0.468453 1.847788,-0.546529 2.888795,-0.234227 1.093058,0.260252 1.925864,0.910882 2.498418,1.951889 0.572554,1.041007 0.70268,2.10804 0.390377,3.201098 -0.208201,1.041007 -0.75473,1.821762 -1.639586,2.342266 0,0.05205 -0.02602,0.104101 -0.07808,0.156151 0,-0.05205 -0.05205,-0.02603 -0.156151,0.07808 -1.925863,1.093057 -3.747626,1.665611 -5.465288,1.717662 -1.769713,0.05205 -2.940846,-0.442428 -3.5134,-1.483436 -0.572554,-0.936906 -0.364353,-2.16009 0.624604,-3.669551 0.884857,-1.56151 2.264191,-2.86277 4.138004,-3.903777 0,0 0.07808,-0.07808 0.07808,-0.07808 0.05205,-0.05205 0.130126,-0.07807 0.234227,-0.07807 m 46.689179,22.095381 c 0,0 0.07807,0.07807 0.07807,0.07807 0,0.05205 0.02603,0.104101 0.07808,0.156151 1.613561,1.561511 2.654568,3.175073 3.123022,4.840684 0.572554,1.665612 0.390377,2.914821 -0.546529,3.747627 -0.728705,0.780755 -1.925864,0.910881 -3.591475,0.390377 -1.717663,-0.468453 -3.331224,-1.483435 -4.840685,-3.044946 0,0 -0.156151,-0.07808 -0.156151,-0.07808 -0.05205,0 -0.07807,-0.02603 -0.07807,-0.07808 -0.676655,-0.780756 -0.988957,-1.717662 -0.936907,-2.81072 0,-1.145108 0.416403,-2.10804 1.249209,-2.888795 0.832806,-0.832806 1.795738,-1.249209 2.888795,-1.249209 1.093058,0 2.003939,0.312302 2.732645,0.936907 M 60.77989,63.687595 c 0.936906,-0.988957 2.10804,-1.509461 3.5134,-1.561511 1.301259,0.05205 2.420342,0.546529 3.357248,1.483435 0.884856,0.832806 1.35331,1.873813 1.40536,3.123022 0.05205,0.05205 0.07808,0.130126 0.07808,0.234227 0,0 0,0.07807 0,0.07807 0.05205,2.498418 -0.416403,4.632483 -1.40536,6.402196 -0.988957,1.873813 -2.134065,2.784694 -3.435324,2.732644 -1.35331,-0.05205 -2.550468,-0.962932 -3.591476,-2.732644 -0.884856,-1.769713 -1.327284,-3.903778 -1.327284,-6.402196 0.05205,-0.1041 0.07807,-0.182176 0.07807,-0.234226 0,-0.05205 -0.02602,-0.104101 -0.07807,-0.156151 0.104101,-1.197159 0.572554,-2.186116 1.40536,-2.966871 0,0 0,0 0,0"
         id="path4334"
         style="fill:#2ecc71;stroke:none"
         inkscape:connector-curvature="0" />
      <path
         style="fill:#31d978;stroke:none"
         d="m 64.293287,62.126088 c -1.40536,0.05205 -2.576494,0.572554 -3.5134,1.561511 -0.832806,0.780755 -1.301259,1.769712 -1.40536,2.966871 0.05205,0.05205 0.07807,0.1041 0.07807,0.156151 0,0.05205 -0.02602,0.130126 -0.07807,0.234226 0,2.498418 0.442428,4.632483 1.327284,6.402196 1.041008,1.769712 2.238166,2.680593 3.591476,2.732644 1.301259,0.05205 2.446367,-0.858831 3.435324,-2.732644 0.988957,-1.769713 1.45741,-3.903778 1.40536,-6.402196 0,0 0,-0.07807 0,-0.07807 0,-0.104101 -0.02603,-0.182176 -0.07808,-0.234227 -0.05205,-1.249209 -0.520504,-2.290216 -1.40536,-3.123022 -0.936906,-0.936906 -2.055989,-1.431385 -3.357248,-1.483435"
         id="path102"
         inkscape:connector-curvature="0" />
      <path
         style="fill:#31d978;stroke:none"
         d="m 76.16077,56.348497 c 0,0 -0.07807,-0.07807 -0.07807,-0.07807 -0.728706,-0.624605 -1.639587,-0.936907 -2.732645,-0.936907 -1.093057,0 -2.055989,0.416403 -2.888795,1.249209 -0.832806,0.780755 -1.249209,1.743687 -1.249209,2.888795 -0.05205,1.093058 0.260252,2.029964 0.936907,2.81072 0,0.05205 0.02602,0.07808 0.07807,0.07808 0,0 0.156151,0.07808 0.156151,0.07808 1.509461,1.561511 3.123022,2.576493 4.840685,3.044946 1.665611,0.520504 2.86277,0.390378 3.591475,-0.390377 0.936906,-0.832806 1.119083,-2.082015 0.546529,-3.747627 -0.468454,-1.665611 -1.509461,-3.279173 -3.123022,-4.840684 -0.05205,-0.05205 -0.07808,-0.104101 -0.07808,-0.156151"
         id="path100"
         inkscape:connector-curvature="0" />
      <path
         style="fill:#31d978;stroke:none"
         d="m 32.282311,33.940814 c -1.041007,-0.312302 -2.003939,-0.234226 -2.888795,0.234227 -0.104101,0 -0.182177,0.02602 -0.234227,0.07807 0,0 -0.07808,0.07808 -0.07808,0.07808 -1.873813,1.041007 -3.253147,2.342267 -4.138004,3.903777 -0.988957,1.509461 -1.197158,2.732645 -0.624604,3.669551 0.572554,1.041008 1.743687,1.535486 3.5134,1.483436 1.717662,-0.05205 3.539425,-0.624605 5.465288,-1.717662 0.104101,-0.104101 0.156151,-0.130126 0.156151,-0.07808 0.05205,-0.05205 0.07808,-0.104101 0.07808,-0.156151 0.884856,-0.520504 1.431385,-1.301259 1.639586,-2.342266 0.312303,-1.093058 0.182177,-2.160091 -0.390377,-3.201098 -0.572554,-1.041007 -1.40536,-1.691637 -2.498418,-1.951889"
         id="path98"
         inkscape:connector-curvature="0" />
      <path
         style="fill:#31d978;stroke:none"
         d="m 27.91008,22.541784 c -0.05205,0.05205 -0.1041,0.05205 -0.156151,0 -0.05205,0 -0.130126,-0.02603 -0.234227,-0.07808 -2.394316,-0.676654 -4.554407,-0.780755 -6.48027,-0.312302 -1.977914,0.520504 -3.149047,1.431385 -3.5134,2.732644 -0.364352,1.249209 0.208202,2.576494 1.717662,3.981854 1.45741,1.405359 3.383274,2.446367 5.777591,3.123021 0,0 0.07808,0 0.07808,0 0.104101,0 0.182177,0 0.234227,0 1.197159,0.208202 2.342267,0 3.435324,-0.624604 1.093058,-0.624604 1.847788,-1.587536 2.264191,-2.888795 0.312302,-1.301259 0.104101,-2.550468 -0.624604,-3.747627 -0.520504,-1.093057 -1.35331,-1.821762 -2.498418,-2.186115"
         id="path96"
         inkscape:connector-curvature="0" />
      <path
         style="fill:#31d978;stroke:none"
         d="m 40.714475,21.370647 c -0.520503,-1.821763 -1.301259,-3.305199 -2.342266,-4.450307 -0.988957,-1.093057 -1.977914,-1.535485 -2.966871,-1.327284 -0.988957,0.312302 -1.639587,1.197158 -1.951889,2.654569 -0.364352,1.50946 -0.312302,3.201097 0.156151,5.07491 0.05205,0.05205 0.05205,0.07808 0,0.07808 0.05205,0.05205 0.104101,0.104101 0.156151,0.156151 0.260252,0.780756 0.806781,1.431385 1.639587,1.951889 0.780756,0.520504 1.691637,0.598579 2.732644,0.234226 0.988957,-0.208201 1.743688,-0.728705 2.264191,-1.561511 0.416403,-0.884856 0.546529,-1.743687 0.390378,-2.576493 0,-0.05205 -0.02603,-0.1041 -0.07808,-0.156151 0,0 0,-0.07808 0,-0.07808"
         id="path4336"
         inkscape:connector-curvature="0" />
    </g>
  </g>
  <g
     style="display:inline;fill:#ffffff"
     id="diamond">
    <path
       inkscape:connector-curvature="0"
       style="fill:#ffffff;stroke:none"
       d="m 98.008499,28.156159 c 1.213705,1.011421 1.871128,2.376839 1.972271,4.096255 0.10114,1.517131 -0.353998,2.93312 -1.365419,4.247968 0,0 -43.996812,52.341035 -43.996812,52.341035 0,0 -2.88255,1.972271 -2.88255,1.972271 0,0 -3.489402,0 -3.489402,0 -1.213705,-0.404569 -2.174555,-1.061992 -2.88255,-1.972271 0,0 -43.9968117,-52.341035 -43.9968117,-52.341035 -1.11256304,-1.314848 -1.61827352,-2.730837 -1.51713142,-4.247968 0.10114209,-1.517132 0.70799467,-2.831979 1.82055772,-3.944542 0,0 17.5987244,-17.447012 17.5987244,-17.447012 1.213706,-1.2137047 2.629695,-1.8205573 4.247968,-1.8205573 0,0 51.430757,0 51.430757,0 1.618273,0 2.983692,0.5562815 4.096255,1.6688443 0,0 18.964143,17.447012 18.964143,17.447012"
       id="path3993" />
  </g>
  <g
     id="coin"
     style="display:inline">
    <path
       id="path537"
       style="display:inline;fill:#ffffff;stroke:none;stroke-width:3.1336143"
       d="m 85.525846,85.356783 c -9.714204,9.818658 -21.517485,14.727987 -35.409843,14.727987 -13.892357,0 -25.747864,-4.909329 -35.566521,-14.727987 C 4.8352772,75.642578 -0.0218252,63.839298 -0.0218252,49.946942 c 0,-13.892357 4.8571024,-25.747864 14.5713072,-35.566523 9.818657,-9.7142045 21.674164,-14.57130672 35.566521,-14.57130672 13.892358,0 25.695639,4.85710222 35.409843,14.57130672 9.818656,9.818659 14.727984,21.674166 14.727984,35.566523 0,13.892356 -4.909328,25.695636 -14.727984,35.409841 m -8.77412,-8.774119 c 7.311767,-7.311767 10.967651,-16.190341 10.967651,-26.635722 0,-10.445381 -3.655884,-19.323955 -10.967651,-26.635722 -7.311768,-7.311767 -16.190342,-10.96765 -26.635723,-10.96765 -10.445381,0 -19.323955,3.655883 -26.63572,10.96765 -7.311767,7.311767 -10.967651,16.190341 -10.967651,26.635722 0,10.445381 3.655884,19.323955 10.967651,26.635722 7.311765,7.311766 16.190339,10.967649 26.63572,10.967649 10.445381,0 19.323955,-3.655883 26.635723,-10.967649"
       inkscape:connector-curvature="0" />
    <path
       id="path365"
       style="display:inline;fill:#ffffff;stroke:none;stroke-width:3.1336143"
       d="m 70.171135,70.002074 c -5.536052,5.431599 -12.221096,8.147398 -20.055132,8.147398 -7.834036,0 -14.466853,-2.715799 -19.89845,-8.147398 -5.536052,-5.536053 -8.304078,-12.221097 -8.304078,-20.055132 0,-7.834036 2.768026,-14.466853 8.304078,-19.898452 5.431597,-5.536051 12.064414,-8.304077 19.89845,-8.304077 7.834036,0 14.51908,2.768026 20.055132,8.304077 5.431599,5.431599 8.147398,12.064416 8.147398,19.898452 0,7.834035 -2.715799,14.519079 -8.147398,20.055132 M 56.383234,65.615013 c 0,0 0,-31.336143 0,-31.336143 0,0 -12.534459,0 -12.534459,0 0,0 0,31.336143 0,31.336143 0,0 12.534459,0 12.534459,0"
       inkscape:connector-curvature="0" />
  </g>
  <g
     id="g19123"
     inkscape:label="enemy-normal"
     transform="matrix(2.0153581,0,0,2.0153581,-3295.3413,-925.37356)">
    <g
       id="g14209"
       transform="translate(-32,-32)">
      <g
         id="use14207">
        <path
           style="fill:#dd4e54;stroke:none"
           inkscape:connector-curvature="0"
           id="path914"
           d="m 1690.05,520.9 q -0.8,-0.8 -2.1,-0.9 -1.2,0.1 -2.05,0.9 -0.85,0.85 -0.9,2 l 0.05,14.25 q 0,1.25 0.8,2 0.95,0.85 2.15,0.85 1.2,0.05 2.05,-0.85 0.95,-0.8 0.95,-2.05 v -14.2 q 0,-1.15 -0.95,-2 z" />
      </g>
    </g>
    <g
       id="g14213"
       transform="translate(-32,-32)">
      <g
         id="use14211">
        <path
           style="fill:#dd4e54;stroke:none"
           inkscape:connector-curvature="0"
           id="path918"
           d="m 1698,522.9 q 0,-1.15 -0.95,-2 -0.8,-0.8 -2.1,-0.9 -1.2,0.1 -2.05,0.9 -0.85,0.85 -0.9,2 l 0.05,14.25 q 0,1.25 0.8,2 0.95,0.85 2.15,0.85 1.2,0.05 2.05,-0.85 0.95,-0.8 0.95,-2.05 z" />
      </g>
    </g>
    <g
       id="g14217"
       transform="translate(-32,-32)">
      <g
         id="use14215">
        <path
           style="fill:#dd4e54;stroke:none"
           inkscape:connector-curvature="0"
           id="path922"
           d="m 1672.85,524.05 q 0,6 6,6 h 26.05 q 6,0 6,-6 V 498 q 0,-6 -6,-6 h -26.05 q -6,0 -6,6 z" />
      </g>
    </g>
    <g
       id="g14221"
       transform="translate(-32,-32)">
      <g
         id="use14219">
        <path
           style="fill:#ffffff;stroke:none"
           inkscape:connector-curvature="0"
           id="path926"
           d="m 1684.55,507.95 q -2.9,2.95 -2.9,7.1 0,4.15 2.9,7.1 2.95,2.9 7.1,2.9 4.1,0 7.1,-2.9 2.9,-2.95 2.9,-7.1 0,-4.15 -2.9,-7.1 -3,-2.9 -7.1,-2.9 -4.15,0 -7.1,2.9 z" />
      </g>
    </g>
    <g
       id="g14225"
       transform="translate(-32,-32)">
      <g
         id="use14223">
        <path
           style="fill:#4b3733;stroke:none"
           inkscape:connector-curvature="0"
           id="path930"
           d="m 1691.95,517 q 0.8,0 1.4,-0.65 0.6,-0.55 0.6,-1.35 0,-0.85 -0.6,-1.5 -0.6,-0.5 -1.4,-0.5 -0.8,0 -1.4,0.5 -0.6,0.65 -0.6,1.5 0,0.8 0.6,1.35 0.6,0.65 1.4,0.65 z" />
      </g>
    </g>
  </g>
  <g
     id="enemy-fast"
     transform="matrix(1.7906784,0,0,1.7906784,-220.80902,59.055302)">
    <g
       id="g14501"
       transform="translate(-1540.8829,-740.06968)">
      <g
         id="use14499">
        <path
           d="m 1671.15,735.7 q -1.45,2.6 -1.1,5.4 0.5,2.9 2.7,4.9 h 0.05 q 2.3,2 5.2,2 h 28.05 q 2.9,0 5.15,-2 2.35,-2 2.75,-4.9 v 0.1 q 0.5,-2.9 -1.05,-5.55 l -14.05,-23.7 q -1.5,-2.5 -4.2,-3.45 h 0.05 q -2.65,-0.95 -5.4,0 h 0.05 q -2.65,0.95 -4.2,3.45 l -14,23.7 z"
           id="path972"
           inkscape:connector-curvature="0"
           style="fill:#2185d5;stroke:none" />
      </g>
    </g>
    <g
       id="g14505"
       transform="translate(-1540.8829,-740.06968)">
      <g
         id="use14503">
        <path
           d="m 1685.9,742.9 q -0.85,0.85 -0.9,2 l 0.05,14.25 q 0,1.25 0.8,2 0.95,0.85 2.15,0.85 1.2,0.05 2.05,-0.85 0.95,-0.8 0.95,-2.05 v -14.2 q 0,-1.15 -0.95,-2 -0.8,-0.8 -2.1,-0.9 -1.2,0.1 -2.05,0.9 m 12.1,2 q 0,-1.15 -0.95,-2 -0.8,-0.8 -2.1,-0.9 -1.2,0.1 -2.05,0.9 -0.85,0.85 -0.9,2 l 0.05,14.25 q 0,1.25 0.8,2 0.95,0.85 2.15,0.85 1.2,0.05 2.05,-0.85 0.95,-0.8 0.95,-2.05 z"
           id="path976"
           inkscape:connector-curvature="0"
           style="fill:#2185d5;stroke:none" />
      </g>
    </g>
    <g
       id="g14509"
       transform="translate(-1540.8829,-740.06968)">
      <g
         id="use14507">
        <path
           d="m 1684.95,728 q -1.2,0 -2.1,0.75 -0.9,1 -0.9,2.25 0,1.2 0.9,2.05 0.9,0.95 2.1,0.95 1.2,0 2.1,-0.95 0.9,-0.85 0.9,-2.05 0,-1.25 -0.9,-2.25 -0.9,-0.75 -2.1,-0.75 m 14,0 q -1.2,0 -2.1,0.75 -0.9,1 -0.9,2.25 0,1.2 0.9,2.05 0.9,0.95 2.1,0.95 1.2,0 2.1,-0.95 0.9,-0.85 0.9,-2.05 0,-1.25 -0.9,-2.25 -0.9,-0.75 -2.1,-0.75 z"
           id="path980"
           inkscape:connector-curvature="0"
           style="fill:#10446d;stroke:none" />
      </g>
    </g>
  </g>
</svg>
